<?xml version="1.0" encoding="UTF-8"?>
<svg version="1.1" viewBox="0 0 1600 808"  xmlns="http://www.w3.org/2000/svg">
<path transform="translate(1543,313)" d="m0 0c5.75-0.12 5.75-0.12 8 1v2c0.95-0.06 1.9-0.12 2.88-0.19 1.03 0.06 2.06 0.13 3.12 0.19l2 3 2 1v2c0.99 0.33 1.98 0.66 3 1l2 2c0.99 0.33 1.98 0.66 3 1v2c0.99 0.33 1.98 0.66 3 1v2c1.13 1.13 2.27 2.26 3.44 3.37 2.55 2.66 4.65 5.66 6.81 8.64 1.82 2.06 3.31 2.84 5.75 3.99 0.14 0.66 0.29 1.32 0.44 2 0.18 0.66 0.37 1.32 0.56 2 0.83 0.31 1.65 0.62 2.5 0.94 0.83 0.35 1.65 0.7 2.5 1.06 0.81 2.62 0.81 2.62 1 5h2v3h3c0.07 14.8 0.12 29.7 0.16 44.5 0.01 6.88 0.03 13.8 0.07 20.6 0.03 6.64 0.05 13.3 0.05 19.9 0.01 2.54 0.02 5.08 0.04 7.62 0.02 3.54 0.02 7.08 0.02 10.6 0.02 1.59 0.02 1.59 0.03 3.21 0 0.96 0 1.92-0.01 2.91 0 0.84 0.01 1.68 0.01 2.54-0.12 0.67-0.24 1.34-0.37 2.03-3 2-3 2-6 2l-1 5h-2v4h-3l-1 3h-2v3h-3v3h-3v3h-3v3h-3v3h-3v3h-4l-1 3h-4v3h-3v3h-4v3c-0.8 0.12-1.61 0.25-2.44 0.38-0.84 0.2-1.69 0.41-2.56 0.62l-1 2h-3v3h-6v3h-5v3h-4v3h-6v3c-0.8 0.12-1.61 0.25-2.44 0.38-0.84 0.2-1.69 0.41-2.56 0.62l-1 2h-3v3h-6v3h-6v3c-1.98 0.33-3.96 0.66-6 1v2c-1.98 0.33-3.96 0.66-6 1v2h-3v3h-6v3h-6l-1 3h-5l-1 3h-3v2c-1.98 0.33-3.96 0.66-6 1v2l-5 1v2c-1.98 0.33-3.96 0.66-6 1l-1 3h-5l-1 3h-3v2c-1.98 0.33-3.96 0.66-6 1v3h-6v3h-3v2c-1.98 0.33-3.96 0.66-6 1v3h-6v3h-6v3h-3v3h-6v3h-6v3h-3v3h-6v3h-6v3h-6v3h-4v3h-6v3c-3.63 0.99-7.26 1.98-11 3v3h-4v3h-6v3c-0.8 0.12-1.61 0.25-2.44 0.38-0.84 0.2-1.69 0.41-2.56 0.62l-1 2c-2.56 0.62-2.56 0.62-5 1v2h-4v3h-6v3c-1.98 0.33-3.96 0.66-6 1v2h-3v3h-6v3h-6v3c-1.98 0.33-3.96 0.66-6 1v2c-0.99 0.33-1.98 0.66-3 1l-1 2c-2.56 0.62-2.56 0.62-5 1v2c-1.98 0.33-3.96 0.66-6 1v2c-1.98 0.33-3.96 0.66-6 1l-1 3h-3v2c-1.98 0.33-3.96 0.66-6 1v2c-1.98 0.33-3.96 0.66-6 1v2c-1.98 0.33-3.96 0.66-6 1v2c-1.98 0.33-3.96 0.66-6 1v2c-2.96 1.48-5.74 1.06-9 1v2c-2.52 1.26-4.31 1.1-7.12 1.06-0.92-0.01-1.83-0.02-2.76-0.02-0.7-0.02-1.4-0.03-2.12-0.04v3h-15v3h-24v-3h-18v-3h-9c-0.49-1.49-0.49-1.49-1-3h-8v-3h-6v-3h-6v-3h-4v-3h-5c-0.49-1.49-0.49-1.49-1-3-0.99-0.33-1.98-0.66-3-1v-2c-0.8-0.12-1.61-0.25-2.44-0.38-1.27-0.3-1.27-0.3-2.56-0.62l-1-2c-0.99-0.33-1.98-0.66-3-1v-3h-3v-3h-3v-3h-3v-3h-3v-5h-3v-4h-3v-5h-3l-1-3-2-1c-0.33-1.67-0.67-3.33-1-5l-2-1c-0.41-2.07-0.41-2.07-0.62-4.56-0.12-1.24-0.12-1.24-0.23-2.51-0.05-0.63-0.1-1.27-0.15-1.93h-2v-6h-3c-0.39-1.62-0.76-3.25-1.12-4.88-0.32-1.35-0.32-1.35-0.64-2.74-0.12-1.18-0.12-1.18-0.24-2.38l2-2h-3c-0.37-3.56-0.72-7.12-1.06-10.7-0.11-1-0.21-2.01-0.32-3.05-0.09-0.98-0.18-1.95-0.28-2.96-0.09-0.89-0.18-1.79-0.27-2.71-0.07-2.69 0.3-4.98 0.93-7.59h-2c-1.44-6.05-1.19-12.2-1.19-18.4 0-2.14-0.02-4.29-0.03-6.44-0.01-1.37-0.01-2.74-0.01-4.12 0-1.24-0.01-2.48-0.01-3.76 0.23-3.24 0.93-5.39 2.24-8.33 0.17-2.76 0.17-2.76 0-5.62-0.12-6.01 0.71-11.5 2-17.4h6v-2c3.62-1.21 6.93-1.11 10.7-1.06 0.7 0 1.4 0.01 2.12 0.01 1.73 0.01 3.46 0.03 5.19 0.05v3h6c-0.17 0.55-0.35 1.09-0.53 1.66-0.56 2.77-0.34 5.01-0.04 7.82 0.6 6.3 0.7 12.5 0.67 18.8 0 1.11-0.01 2.23-0.01 3.38 0 3.51-0.01 7.03-0.03 10.5 0 2.4-0.01 4.8-0.01 7.21-0.01 5.84-0.03 11.7-0.05 17.5h2c0.71 4.37 1.09 8.64 1.31 13.1 0.44 6.25 1.89 11.9 3.75 17.8 0.82 2.69 1.44 5.32 1.94 8.09h3v5c0.99 0.33 1.98 0.66 3 1v3h3v4h3l1 5c0.99 0.33 1.98 0.66 3 1v2c0.76 0.29 1.53 0.58 2.31 0.88 2.69 1.12 2.69 1.12 5.69 3.12v2h3c0.62 0.8 1.24 1.61 1.88 2.44 2.44 2.94 3.47 3.07 7.12 3.56l1 2c0.83 0.16 1.65 0.33 2.5 0.5 0.83 0.16 1.65 0.33 2.5 0.5l1 2c3.03 0.66 3.03 0.66 6 1v3h6v2l15 1v2h21v-2l12-1v-2c0.97-0.12 1.94-0.25 2.94-0.38 1.01-0.2 2.02-0.41 3.06-0.62l1-2c2.65-0.59 5.29-0.74 8-1v-2h6v-3h6v-3c1.98-0.33 3.96-0.66 6-1v-2h4v-2c1.98-0.33 3.96-0.66 6-1v-2c1.98-0.33 3.96-0.66 6-1v-2c1.98-0.33 3.96-0.66 6-1v-2c1.88-2.61 2.98-2.99 6.19-3.69 0.93-0.1 1.85-0.2 2.81-0.31v-2c1.98-0.33 3.96-0.66 6-1v-3h6v-3h3v-2c1.21-0.43 1.21-0.43 2.44-0.88 2.69-0.85 2.69-0.85 3.56-3.12h6v-3h4v-2l5-1 1-3h5v-3h6v-3h4v-3h5v-3h6v-3h4v-3h6v-3h5v-3h4v-3h6v-3h6v-3h3v-3h6v-3h6v-3c1.98-0.33 3.96-0.66 6-1v-2h3v-3h6v-3c1.98-0.33 3.96-0.66 6-1v-2c0.99-0.33 1.98-0.66 3-1l1-2h5v-3c1.98-0.33 3.96-0.66 6-1v-2c0.99-0.33 1.98-0.66 3-1l1-2c1.67-0.33 3.33-0.67 5-1l1-2c2.56-0.62 2.56-0.62 5-1v-2c1.98-0.33 3.96-0.66 6-1l1-3h3v-2c1.98-0.33 3.96-0.66 6-1v-2l5-1 1-3h3v-2c1.98-0.33 3.96-0.66 6-1v-2c1.98-0.33 3.96-0.66 6-1v-3h3v-2c1.98-0.33 3.96-0.66 6-1v-3h6v-3h6v-3h6v-3h3v-3h6v-3h6v-3h4v-3h5v-3h6v-3h4v-3l5-1v-2c0.99-0.33 1.98-0.66 3-1l1-2h3v-3h3v-3h3v-3h3v-3h3v-4h2c0.12-1.3 0.25-2.6 0.38-3.94 0.21-2.21 0.21-2.21 0.62-4.06l2-1c0.66-2.53 0.66-2.53 1-5h2l1-9h2c-0.01-1.05-0.02-2.1-0.04-3.18 0-1.37-0.01-2.75-0.02-4.13-0.01-0.69-0.02-1.38-0.03-2.09-0.01-3.15 0.09-5.59 1.09-8.6h2c-0.13-1.14-0.13-1.14-0.25-2.3-0.11-0.99-0.21-1.99-0.31-3.01-0.11-0.99-0.21-1.97-0.32-2.99-0.12-2.7-0.12-2.7 0.88-5.7h-2l-2-10 2-1v-2h-3c-0.1-0.93-0.21-1.86-0.31-2.81-0.73-3.37-1.22-4.02-3.69-6.19-2.19-3.34-2.18-6.06-2-10-1.49 0.5-1.49 0.5-3 1v-3l-2-1h2v-2h-3v-4h-3v-5h-3c-1.37-1.64-2.69-3.31-4-5-1.24-0.99-1.24-0.99-2.5-2-2.62-2.1-4.43-4.37-6.5-7l-3-2v-2h-3v-3h-2l-1-2c-1.64-0.72-3.31-1.39-5-2v-2c-0.99-0.33-1.98-0.66-3-1l-1-5c1.49-0.5 1.49-0.5 3-1 0.06-0.74 0.12-1.49 0.19-2.25 1.07-3.62 2.68-4.74 5.81-6.75h3l1-3h5l1-3zm25 67 1 2zm24 94v5l2-4-2-1z" fill="#D2526E"/>
<path transform="translate(470,301)" d="m0 0h30v3h13v3h5l-1 3c0.23 1.94 0.46 3.87 0.73 5.8 1.09 8.97 1.09 8.97-1.73 13.2-0.5 1.49-0.5 1.49-1 3h-14c-2.33 0.33-4.67 0.66-7 1v2c-1.11 0.23-2.23 0.45-3.38 0.69-3.66 0.92-3.66 0.92-5.06 3.43-0.74 3.79-0.81 7.02-0.56 10.9 2.14 2.14 3.13 2.43 6 3v2l21 1v2c1.49 0.5 1.49 0.5 3 1v2c1.49 0.5 1.49 0.5 3 1 1.49 0.99 1.49 0.99 3 2l-1 3 4 4v-6c0.99-0.33 1.98-0.66 3-1 0.5-0.99 0.5-0.99 1-2 1.67-0.33 3.33-0.67 5-1 0.5-0.99 0.5-0.99 1-2 2.56-0.62 2.56-0.62 5-1 0.29-0.89 0.58-1.77 0.88-2.69 0.95-2.81 1.99-5.56 3.12-8.31h2c-0.02-1.28-0.04-2.56-0.06-3.88-0.06-3.87-0.06-3.87 1.06-6.12h2c0.07-1.17 0.07-1.17 0.15-2.37 0.11-1.52 0.11-1.52 0.23-3.07 0.06-1.01 0.13-2.02 0.21-3.06 0.13-0.82 0.27-1.65 0.41-2.5 0.99-0.5 0.99-0.5 2-1 0.5-1.49 0.5-1.49 1-3 1.66-2.19 2.49-2.92 5.24-3.36 0.85 0.01 1.7 0.02 2.58 0.03 0.93 0.01 1.85 0.01 2.81 0.02 0.97 0.02 1.94 0.04 2.93 0.06 1.46 0.01 1.46 0.01 2.95 0.02 7.18 0.08 7.18 0.08 9.49 1.23 0.38 1.66 0.71 3.32 1 5l1 2c0.21 2.73 0.38 5.45 0.5 8.19 0.2 4.27 0.44 8.44 1.09 12.7 0.41 3.14 0.41 3.14-0.59 6.14 3.03 0.86 5.84 1.18 8.98 1.32 1.41 0.06 1.41 0.06 2.84 0.12 1.45 0.06 1.45 0.06 2.93 0.12 1.48 0.07 1.48 0.07 2.98 0.13 2.42 0.11 4.85 0.21 7.27 0.31 0.21 0.91 0.21 0.91 0.43 1.84 0.55 2.27 0.55 2.27 1.66 4.76 1.26 4.69 0.88 8.96 0.53 13.8-0.05 0.92-0.11 1.85-0.17 2.8-0.14 2.28-0.29 4.55-0.45 6.82h-2v3h-21l-1 3h-2c-0.17 5.08-0.33 10.2-0.48 15.2-0.05 1.72-0.11 3.44-0.17 5.16-0.31 9.23-0.46 18.4-0.06 27.7 0.02 0.76 0.04 1.51 0.07 2.29 0.22 4.03 0.22 4.03 2 7.57 1.77 1.25 1.77 1.25 4.64 2.07v2l15 1v2h3v3c0.99 0.33 1.98 0.66 3 1-0.16 0.58-0.33 1.15-0.49 1.74-0.5 2.22-0.62 4.11-0.61 6.37 0.01 0.75 0.01 1.51 0.01 2.28 0.01 0.78 0.02 1.56 0.03 2.36 0 1.19 0 1.19 0.01 2.4 0.01 1.95 0.03 3.9 0.05 5.85-2.35 1.18-3.74 1.12-6.36 1.11h-2.73c-0.97 0-1.95-0.01-2.95-0.01s-1.99-0.01-3.02-0.01c-3.19 0-6.38-0.01-9.56-0.03-2.16 0-4.32-0.01-6.48-0.01-5.3-0.01-10.6-0.03-15.9-0.05l-1-3h-5v-3h-3l-1-3-2-1v-3h-3c-0.12-0.8-0.25-1.61-0.38-2.44-0.2-0.84-0.41-1.69-0.62-2.56l-2-1c-2.65-8.48-2.18-17.8-2.19-26.6v-3.53c0.06-8.45 0.06-8.45 1.19-11.8h-3c-0.53-9.33 1.09-17.9 3-27-1.49-0.5-1.49-0.5-3-1v-5c-5.44-0.5-5.44-0.5-11-1v-2h-13v2c-3.3 1.1-5.73 1.11-9.2 1.1-1.81-0.01-1.81-0.01-3.66-0.01-1.9-0.01-1.9-0.01-3.83-0.03-1.91 0-1.91 0-3.86-0.01-3.15-0.01-6.3-0.03-9.45-0.05 0 1.12 0 2.24 0.01 3.39 0.02 10.5 0.03 21.1 0.04 31.6 0.01 5.41 0.01 10.8 0.03 16.2 0.01 5.22 0.01 10.4 0.01 15.7 0.01 2 0.01 3.99 0.02 5.99v8.37c0.01 0.83 0.01 1.66 0.01 2.51 0 3.64-0.23 6.65-1.12 10.2h-20l-1 2h-6v-2h-11c-1.21-3.62-1.16-6.95-1.17-10.7-0.01-1.17-0.01-1.17-0.02-2.38-0.02-1.7-0.03-3.41-0.04-5.12-0.02-2.71-0.04-5.41-0.06-8.12-0.08-7.7-0.14-15.4-0.19-23.1-0.03-4.71-0.07-9.42-0.12-14.1-0.01-1.79-0.03-3.58-0.03-5.37-0.02-2.52-0.04-5.03-0.07-7.55v-2.21c-0.07-5.29-0.99-10.2-2.3-15.3h-8l-1-3h-3v-3h-2c-2.93-5.86-0.91-13.4 1.05-19.3 0.95-1.71 0.95-1.71 3.95-2.71l1-2c1.67-0.33 3.33-0.67 5-1l1-2h3v-3h2c-0.03-0.69-0.07-1.38-0.11-2.09-0.16-5.77 0.31-10.2 2.38-15.6 1.35-4.33 1.49-8.84 1.73-13.4h3c-0.19-0.62-0.37-1.24-0.56-1.88-0.44-2.12-0.44-2.12 0.56-4.12h3v-3h3v-3h3v-3c2.25-3.08 4.38-3.33 8-4l1-2zm51 72 1 3v-3h-1zm-29 14v1h7v-1h-7zm8 0v1h11v-1h-11zm-55 8 1 3zm161 67 1 2z" fill="#148ABF"/>
<path transform="translate(1194 126)" d="m0 0c1.19 0.01 1.19 0.01 2.41 0.02 7.6 0.11 14.5 0.6 21.7 3.17 2 0.37 4 0.71 6 1v2c2.98 0.33 5.95 0.66 9 1v2c0.88 0.05 0.88 0.05 1.76 0.11 5.06 0.43 8.79 1.26 13.2 3.89v2c2.31 0.33 4.62 0.66 7 1v2c0.97 0.12 1.94 0.25 2.94 0.37 1.01 0.21 2.02 0.41 3.06 0.63 0.33 0.66 0.67 1.32 1 2 2.05 1.09 2.05 1.09 4.44 2.06 0.81 0.34 1.61 0.68 2.44 1.04 1.05 0.44 1.05 0.44 2.12 0.9 0.67 0.33 1.32 0.66 2 1v2h5v2c0.64 0.12 1.28 0.25 1.94 0.37 0.68 0.21 1.36 0.41 2.06 0.63 0.33 0.66 0.67 1.32 1 2 2.53 0.65 2.53 0.65 5 1v2c0.57 0.26 1.14 0.53 1.72 0.8 0.73 0.36 1.47 0.71 2.22 1.07 0.73 0.35 1.46 0.7 2.22 1.06 1.84 1.07 1.84 1.07 2.84 3.07 3.03 0.66 3.03 0.66 6 1 0.33 0.99 0.67 1.98 1 3 0.77-0.06 1.53-0.13 2.32-0.19 2.68 0.19 2.68 0.19 4.5 1.56 1.18 1.63 1.18 1.63 1.18 3.63 0.73 0.27 1.45 0.53 2.2 0.81 2.79 1.18 5.18 2.57 7.74 4.19 3.63 2.23 6.98 3.74 11.1 5 0.33 0.66 0.67 1.32 1 2 1.24 0.25 1.24 0.25 2.5 0.5 1.24 0.25 1.24 0.25 2.5 0.5 0.33 0.66 0.67 1.32 1 2 2.02 1.13 2.02 1.13 4 2v2c1.66 0.33 3.3 0.66 5 1v2h5c0.33 0.66 0.67 1.32 1 2 1.43 0.88 2.9 1.71 4.38 2.5 2.65 1.41 5.12 2.83 7.62 4.5h2c0.33 0.66 0.67 1.32 1 2 1 0.33 1.99 0.66 3 1v2c0.93 0.1 1.86 0.2 2.82 0.31 3.48 0.75 3.83 1.29 6.18 3.69 2.04 1.19 2.04 1.19 4.19 2.19 0.72 0.34 1.43 0.68 2.17 1.04 0.54 0.25 1.09 0.51 1.64 0.77v2h4c1.57 1.44 1.57 1.44 3 3 1 0.33 1.99 0.66 3 1v2h3c1.02 0.99 2.01 1.99 3 3 2.27 1.2 2.27 1.2 4.69 2.19 0.81 0.34 1.62 0.68 2.45 1.04 0.62 0.25 1.23 0.51 1.86 0.77v2c1.99 0.33 3.97 0.66 6 1v2h3c0.25 0.57 0.5 1.15 0.76 1.75 1.16 2.34 1.16 2.34 3.18 4.18 2.21 2.21 3.64 4.29 5.06 7.07v3c-0.66 0.33-1.31 0.66-2 1h2c-0.32 2.31-0.66 4.62-1 7h-2c0.1 1.36 0.1 1.36 0.19 2.75-0.21 3.66-0.62 4.7-3.19 7.25-7.6 1.55-14.4-0.26-21-4v-2c-1.17-0.19-1.17-0.19-2.37-0.38-2.63-0.62-2.63-0.62-4.63-2.62-1.64-0.71-3.31-1.38-5-2v-2h-3v-2c-1.98-0.33-3.96-0.66-6-1v-2c-0.96-0.13-1.93-0.25-2.93-0.38-1.01-0.2-2.02-0.41-3.07-0.62-0.32-0.66-0.66-1.32-1-2-1.64-0.72-3.31-1.4-5-2v-2h-5c-0.32-0.99-0.66-1.98-1-3h-4v-2c-1.98-0.33-3.96-0.66-6-1v-2c-1.65-0.33-3.29-0.66-5-1v-3h-5c-0.32-0.99-0.66-1.98-1-3h-4v-2c-1.98-0.33-3.96-0.66-6-1v-3h-5c-0.32-0.99-0.66-1.98-1-3h-5v-3h-5c-0.32-0.99-0.66-1.98-1-3-2.01-0.74-2.01-0.74-4-1v-2h-5c-0.32-0.99-0.66-1.98-1-3-0.74-0.13-1.48-0.25-2.24-0.38-2.56-0.58-4.48-1.36-6.76-2.62v-3h-6v-3h-5c-0.32-0.99-0.66-1.98-1-3-2.82-1.71-5.92-2.81-9-4v-2h-5c-0.32-0.99-0.66-1.98-1-3-2.01-0.74-2.01-0.74-4-1v-2h-5v-3h-5c-0.32-0.99-0.66-1.98-1-3-2.97-0.5-2.97-0.5-6-1v-2c-2.97-0.5-2.97-0.5-6-1v-2c-1.31-0.33-2.63-0.66-4-1v-2h-5c-0.32-0.99-0.66-1.98-1-3-1.11-0.13-2.22-0.25-3.37-0.38-3.63-0.62-3.63-0.62-5.63-2.62-3.87-1.77-7.9-2.88-12-4v-2c-2.97-0.33-5.94-0.66-9-1v-2h-18v2c-4.05 0.98-7.83 1.08-12 1v2c-4.45 0.49-4.45 0.49-9 1v2c-3.46 0.49-3.46 0.49-7 1v2c-1.98 0.33-3.96 0.66-6 1v2c-1.65 0.33-3.29 0.66-5 1-0.32 0.99-0.66 1.98-1 3h-3v2c-1.98 0.33-3.96 0.66-6 1v3h-3c-0.32 0.99-0.66 1.98-1 3h-2c-0.32 0.99-0.66 1.98-1 3h-2c-0.49 1.48-0.49 1.48-1 3h-2v3h-3c-0.15 1.39-0.15 1.39-0.31 2.81-0.74 3.45-1.28 3.88-3.69 6.19-1.2 3.1-1.2 3.1-2 6h-3c-0.32 2.97-0.66 5.94-1 9h-2c-0.32 2.97-0.66 5.94-1 9h-2v15h-3c0.01 0.97 0.02 1.94 0.03 2.95 0.06 9.15 0.1 18.3 0.13 27.4 0.02 4.71 0.04 9.42 0.07 14.1 0.03 4.54 0.05 9.08 0.06 13.6 0.01 1.73 0.02 3.47 0.03 5.2 0.02 2.42 0.03 4.85 0.03 7.27 0.01 0.72 0.02 1.44 0.03 2.19-0.01 2-0.01 2-0.38 5.2l-3 2c-0.32 0.66-0.66 1.32-1 2-7.83 1.22-15.4 1.62-23-1v-2h-3c-0.96-2.88-1.26-5.17-1.5-8.19-0.12-1.51-0.12-1.51-0.24-3.06-0.09-1.05-0.17-2.1-0.26-3.19-0.16-2.08-0.33-4.16-0.5-6.25-0.07-0.92-0.14-1.84-0.21-2.79-0.2-2.42-0.2-2.42-0.79-4.31-0.61-2.73-0.62-5.25-0.62-8.05-0.01-1.18-0.01-2.35-0.01-3.56v-3.83-3.94-8.23c0.01-3.52 0.01-7.05 0-10.6v-10.1-3.84c0-1.76 0-1.76 0.01-3.54v-3.13c0.12-2.45 0.12-2.45 1.12-4.45h2c-0.03-0.83-0.06-1.67-0.1-2.52-0.03-1.09-0.05-2.18-0.08-3.29-0.04-1.08-0.07-2.16-0.11-3.27 0.34-3.36 0.92-3.75 3.29-5.92 0.51-2.21 0.51-2.21 0.57-4.57 0.23-4.22 0.23-4.22 2.43-6.43 0.41-2.33 0.74-4.66 1-7h3c-0.18-0.62-0.37-1.24-0.56-1.88-0.44-2.12-0.44-2.12 0.56-4.12h2c0.11-0.93 0.21-1.86 0.32-2.81 0.69-3.22 1.07-4.31 3.68-6.19h2c0.33-1.98 0.67-3.96 1-6 1.49-0.5 1.49-0.5 3-1v-2h2c0.33-1.98 0.67-3.96 1-6h3v-3c1.63-1.38 3.3-2.72 5-4 0.5-0.99 0.5-0.99 1-2h2c0.33-0.99 0.67-1.98 1-3 1-0.33 1.99-0.66 3-1 0.33-0.66 0.67-1.32 1-2 2.57-0.63 2.57-0.63 5-1v-2h3v-3c1.99-0.33 3.97-0.66 6-1v-2h3c0.5-1.49 0.5-1.49 1-3 1.99-0.33 3.97-0.66 6-1v-2c2.65-0.33 5.28-0.66 8-1v-2c3.47-0.5 3.47-0.5 7-1v-2c4.46-0.5 4.46-0.5 9-1v-2c0.93-0.12 1.86-0.24 2.82-0.37 1.86-0.25 1.86-0.25 3.75-0.51 1.22-0.16 2.43-0.32 3.69-0.49 3.73-0.54 3.73-0.54 7.16-1.69 4.26-1.12 8.07-1.2 12.5-1.13zm-90.9 194 1 2z" fill="#3334AE"/>
<path transform="translate(1064,353)" d="m0 0h12v2c2.97 0.33 5.94 0.66 9 1v3h6c0.49 1.49 0.49 1.49 1 3h2v3h3v2c0.99 0.33 1.98 0.66 3 1v2c2.97 0.33 5.94 0.66 9 1v-3h6v-3h3v-3c1.12-1.62 1.12-1.62 3-3 2-0.36 4-0.69 6-1l1-2c11-1.95 24-1.95 35 0l1 2c3.03 0.66 3.03 0.66 6 1l1 3h2c0.59 1.49 0.59 1.49 1.19 3 1.16 2.77 2.51 5.06 4.25 7.5 6.54 10.3 7.13 22.7 6.88 34.6l-0.03 4.14c-0.03 3.58-0.08 7.15-0.13 10.7-0.09 5.76-0.15 11.5-0.19 17.3-0.02 2-0.06 4-0.09 5.99-0.02 1.22-0.03 2.43-0.04 3.68-0.03 1.59-0.03 1.59-0.05 3.22 0.22 3.02 1 5.13 2.21 7.89 0.23 2.68 0.23 2.68 0.2 5.52-0.01 1.53-0.01 1.53-0.02 3.1-0.03 1.58-0.03 1.58-0.06 3.19 0 1.08-0.01 2.15-0.02 3.26-0.03 2.64-0.06 5.29-0.1 7.93-5.36 0.12-10.7 0.21-16.1 0.27-1.82 0.03-3.65 0.06-5.47 0.11-2.62 0.06-5.23 0.09-7.85 0.11-0.82 0.02-1.64 0.05-2.48 0.08-2.3 0-2.3 0-6.13-0.57-3.13-3.16-3.35-6.31-3.37-10.7 0.02-0.72 0.03-1.45 0.04-2.2 0-0.77 0-1.55 0.01-2.35 0.01-2.55 0.04-5.1 0.07-7.66 0.01-1.77 0.02-3.55 0.03-5.33 0.1-14.4 0.46-28.9 0.95-43.3 0.03-0.79 0.05-1.58 0.08-2.39 0.04-1.45 0.09-2.9 0.15-4.35 0.14-4.48-0.31-8.17-0.96-12.7h-38c-1.72 5.17-2.26 8.8-2.16 14.1 0.01 0.75 0.01 1.51 0.02 2.29 0.01 2.4 0.04 4.8 0.08 7.2 0.03 2.41 0.05 4.81 0.07 7.22 0.01 1.49 0.03 2.98 0.05 4.47 0.04 3.74-0.29 7.1-1.06 10.8l1 1c0.1 2.63 0.14 5.24 0.13 7.88 0 0.79 0 1.59 0.01 2.41 0 1.7-0.01 3.4-0.01 5.1 0 2.57 0 5.14 0.01 7.72 0 1.65-0.01 3.3-0.01 4.95 0 0.76 0.01 1.52 0.01 2.3-0.02 5.28-0.49 10.4-1.14 15.6-3.63 0.2-5.87-0.14-9-2v2c-6.68 0.7-13.3 1.26-20 1-0.82-0.03-1.64-0.06-2.49-0.09-1.21-0.08-1.21-0.08-2.45-0.16-0.73-0.05-1.46-0.09-2.21-0.14-1.85-0.61-1.85-0.61-3.04-2.41-1.64-4.47-2.13-8.68-2.5-13.4-0.1-1.26-0.21-2.53-0.32-3.83-0.14-4.14 0.39-8.07 0.97-12.2 1.25-8.94 1.34-17.8 1.3-26.8-0.01-2.7 0-5.4 0.01-8.09v-5.27c0-0.79 0-1.57 0.01-2.38-0.06-6.73-1.13-12.3-2.28-19.2h-30v3h-3v33h-2c-0.02 6.12-0.04 12.2-0.05 18.4l-0.03 6.24c-0.01 3-0.01 6-0.02 8.99 0 0.92-0.01 1.85-0.01 2.8 0 4.1 0.11 8.02 0.74 12.1 0.37 3.54 0.37 3.54-1.63 6.54-2.82 0.29-2.82 0.29-6.12 0.19-1.65-0.04-1.65-0.04-3.33-0.08-0.84-0.04-1.68-0.07-2.55-0.11v2h-12v-2c-0.66 0.08-1.33 0.17-2.01 0.25-8.77 1.02-8.77 1.02-13-0.25-0.96-2.88-1.13-4.68-1.13-7.67 0-0.95 0-1.91-0.01-2.9 0.01-1.05 0.01-2.1 0.01-3.18v-3.36c-0.01-3.67-0.01-7.35 0-11 0-2.56 0-5.11-0.01-7.66 0-5.36 0-10.7 0.01-16.1 0.01-6.17 0-12.4 0-18.5-0.01-5.95-0.01-11.9 0-17.9 0-2.53 0-5.06-0.01-7.58 0-3.54 0.01-7.09 0.01-10.6 0-1.04 0-2.08-0.01-3.15 0.01-0.97 0.01-1.95 0.01-2.95v-2.53c0.18-3.98 0.69-7.94 1.13-11.9h24v2c0.64 0.05 1.28 0.1 1.93 0.15 0.83 0.07 1.66 0.15 2.51 0.23 0.82 0.06 1.64 0.13 2.49 0.21 1.03 0.2 1.03 0.2 2.07 0.41 0.5 0.99 0.5 0.99 1 2 2.53 0.66 2.53 0.66 5 1 0.49 1.49 0.49 1.49 1 3h2v3c1.48-0.11 2.96-0.24 4.44-0.38 0.82-0.06 1.64-0.13 2.49-0.21 0.69-0.13 1.37-0.27 2.07-0.41l1-2h2l1-3h3v-3c1.02-1.64 1.02-1.64 3-3 2.63-0.38 5.05-0.6 7.69-0.69 0.7-0.03 1.4-0.07 2.12-0.1 1.73-0.08 3.46-0.15 5.19-0.21v-2zm1 45 1 2zm-39 28 1 3z" fill="#00A9A6"/>
<path transform="translate(746,304)" d="m0 0c4.46-0.03 8.92-0.05 13.4-0.06 1.27-0.01 2.54-0.02 3.85-0.03 1.81 0 1.81 0 3.67-0.01 1.68-0.01 1.68-0.01 3.39-0.01 2.71 0.11 2.71 0.11 4.71 1.11v2h22v3h9c0.5 0.99 0.5 0.99 1 2 2.53 0.66 2.53 0.66 5 1v5c0.99 0.33 1.98 0.66 3 1v3h3l-1 3c-0.07 2.74-0.09 5.45-0.06 8.19 0 1.12 0 1.12 0.01 2.27 0.01 1.85 0.03 3.69 0.05 5.54-1.09 0.01-1.09 0.01-2.21 0.02-6.87 0.08-13.7 0.17-20.6 0.27-3.53 0.05-7.06 0.09-10.6 0.13-4.06 0.05-8.12 0.11-12.2 0.17-1.26 0.01-2.52 0.02-3.83 0.03-1.18 0.02-2.36 0.04-3.58 0.06-1.03 0.01-2.07 0.03-3.14 0.04-2.96 0.29-5.12 1.11-7.84 2.28-3.35 0.32-6.68 0.44-10 0.56-2.94 0.2-2.94 0.2-4.79 1.81-1.48 2.07-2.24 4.27-3.17 6.63-0.99 0.5-0.99 0.5-2 1 0.04 1.09 0.08 2.19 0.12 3.31-0.12 3.69-0.12 3.69-2.12 6.69-1.68 10.1-1.1 20.8-1 31h-2c0.14 2.88 0.29 5.75 0.44 8.62 0.04 0.81 0.08 1.62 0.12 2.45 0.18 3.44 0.41 6.76 0.98 10.2 0.49 2.95 0.45 5.61 0.34 8.59-0.06 5.45 0.59 10.3 3.12 15.2l2 1 1 2c0.99 0.33 1.98 0.66 3 1v2c0.93-0.04 1.86-0.08 2.81-0.12 3.19 0.12 3.19 0.12 6.19 2.12 2.86 0.31 2.86 0.31 6.09 0.27h3.62c1.25 0 2.5-0.01 3.79-0.02 1.87 0.01 1.87 0.01 3.79 0.02h3.62c1.09-0.01 2.19-0.01 3.32-0.01 2.98-0.06 2.98-0.06 5.77-2.26h4v-2l2-1c0.66-2.53 0.66-2.53 1-5h3c-0.16-0.76-0.33-1.53-0.5-2.31-1.67-12.3-1.67-12.3 0.5-16.7h-3.88-23.1l-1-6h-2c-0.83-5.79-1.15-11.4-1.12-17.2-0.01-0.79-0.01-1.58-0.02-2.39 0-0.76 0.01-1.53 0.01-2.31v-2.07c0.14-2.09 0.56-3.96 1.13-5.98 4.61-1.17 9.15-1.15 13.9-1.12h2.75c16.5 0.1 32.9 0.65 49.4 1.12l-1 3c-0.09 1.37-0.12 2.75-0.12 4.12v2.54c0 0.91 0 1.83 0.01 2.77v2.93c0 3.19 0 6.39 0.01 9.59 0 2.21 0.01 4.43 0.01 6.65 0 5.83 0.01 11.7 0.02 17.5 0.01 5.95 0.02 11.9 0.02 17.9 0.01 11.7 0.03 23.4 0.05 35-1.11-0.01-2.22-0.02-3.37-0.03-2.93 0.02-4.87 0.33-7.63 1.03-2.36-0.12-2.36-0.12-4.75-0.44-1.2-0.15-1.2-0.15-2.42-0.31-0.61-0.08-1.21-0.16-1.83-0.25v-2h-6v-3c-2.97-0.33-5.94-0.66-9-1v-2h-3v2c-2.97 0.33-5.94 0.66-9 1v2c-2.85 0.81-5.37 1.12-8.33 1.1-0.8-0.01-1.6-0.01-2.42-0.01-0.83-0.01-1.65-0.02-2.5-0.03-0.84 0-1.68-0.01-2.55-0.01-2.06-0.01-4.13-0.03-6.2-0.05v2h-21v-2h-14l-1-3c-0.78 0.06-1.57 0.12-2.38 0.19-0.86-0.06-1.73-0.13-2.62-0.19l-2-3h-2v-3h-3v-3h-3v-4c-0.99-0.33-1.98-0.66-3-1l-1-3c0.5-0.99 0.5-0.99 1-2-0.99-0.33-1.98-0.66-3-1-1.18-2.94-1.03-3.9 0-7h-3c-1.12-4.75-1.12-4.75 0-7h-2c-1.72-3.68-2.33-6.94-2.66-10.9-0.26-2.14-0.26-2.14-1.35-4.28-1.17-3.28-1.24-5.88-1.23-9.36-0.01-1.31-0.01-2.62-0.01-3.97 0-1.42 0.01-2.85 0.02-4.27v-4.4c0-3.06 0.01-6.13 0.02-9.19 0.02-3.93 0.03-7.86 0.02-11.8 0-3.02 0.01-6.04 0.02-9.07v-4.34c0.01-2.03 0.01-4.05 0.02-6.07 0.01-1.15 0.01-2.3 0.02-3.49 0.13-2.83 0.13-2.83 1.13-5.83h2l1-12h3v-7h3v-6l2-1c0.66-2.53 0.66-2.53 1-5h2l1-3h3v-3h3v-3h3v-3h4v-2l5-1 1-3h8v-3h15l1-3zm-19 111v6h1v-6h-1z" fill="#0AA2B6"/>
<path transform="translate(1543,313)" d="m0 0c5.75-0.12 5.75-0.12 8 1v2c0.95-0.06 1.9-0.12 2.88-0.19 1.03 0.06 2.06 0.13 3.12 0.19 0.99 1.49 0.99 1.49 2 3 0.99 0.5 0.99 0.5 2 1v2c0.99 0.33 1.98 0.66 3 1l2 2c0.99 0.33 1.98 0.66 3 1v2c0.99 0.33 1.98 0.66 3 1v2c1.13 1.13 2.27 2.26 3.44 3.37 2.55 2.66 4.65 5.66 6.81 8.64 1.82 2.06 3.31 2.84 5.75 3.99 0.22 0.99 0.22 0.99 0.44 2 0.18 0.66 0.37 1.32 0.56 2 0.83 0.31 1.65 0.62 2.5 0.94 0.83 0.35 1.65 0.7 2.5 1.06 0.81 2.63 0.81 2.63 1 5h2v3h3c0.07 14.8 0.12 29.7 0.16 44.5 0.01 6.88 0.03 13.8 0.07 20.6 0.03 6.64 0.05 13.3 0.05 19.9 0.01 2.54 0.02 5.08 0.04 7.62 0.02 3.54 0.02 7.08 0.02 10.6 0.01 1.06 0.02 2.12 0.03 3.21 0 0.96 0 1.92-0.01 2.91 0 0.84 0.01 1.68 0.01 2.54-0.12 0.67-0.24 1.34-0.37 2.03-3 2-3 2-6 2l-1 5h-2v4h-3l-1 3h-2v3h-3v3h-3v3h-3v3h-3v3h-3v3h-4l-1 3h-4v3h-3v3h-4v3c-0.8 0.12-1.61 0.25-2.44 0.38-0.84 0.2-1.69 0.41-2.56 0.62l-1 2h-3v3h-6v3h-5v3h-4v3h-6v3c-0.8 0.12-1.61 0.25-2.44 0.38-0.84 0.2-1.69 0.41-2.56 0.62l-1 2h-3v3h-6v3h-6v3c-1.98 0.33-3.96 0.66-6 1v2c-1.98 0.33-3.96 0.66-6 1v2h-3v3h-6v3h-6l-1 3h-5l-1 3h-3v2c-1.98 0.33-3.96 0.66-6 1v2l-5 1v2c-1.98 0.33-3.96 0.66-6 1l-1 3h-5l-1 3h-3v2c-1.98 0.33-3.96 0.66-6 1v3h-6v3h-3v2c-1.98 0.33-3.96 0.66-6 1v3h-6v3h-6v3h-3v3h-6v3h-6v3h-3v3h-6v3h-6v3h-6v3h-4v3h-6v3c-2.31 0.33-4.62 0.66-7 1 1.81-3 1.81-3 4-6h3v-2c0.76-0.08 1.53-0.16 2.31-0.25 3.3-0.92 3.73-2.05 5.69-4.75 2.69-1.25 2.69-1.25 5-2v-1c0.8-0.12 1.61-0.25 2.44-0.38 0.84-0.2 1.69-0.41 2.56-0.62l1-2 2 1 1-3h2v-3c-0.99-0.33-1.98-0.66-3-1v-6l2-1 1-3h2v-3c-1.09 0.33-2.19 0.66-3.31 1-3.69 1-3.69 1-6.69 1-2.34 0.32-4.67 0.65-7 1v4h-5v2c-2.46 0.53-4.92 1.05-7.38 1.56-0.69 0.15-1.39 0.31-2.11 0.46-5.28 1.09-5.28 1.09-7.51-0.02v-1h-2v-3h4v-3h6v-3h5v-3h4v-3h6v-3h6v-3h3v-3h6v-3h6v-3c1.98-0.33 3.96-0.66 6-1v-2h3v-3h6v-3c1.98-0.33 3.96-0.66 6-1v-2c0.99-0.33 1.98-0.66 3-1l1-2h5v-3c1.98-0.33 3.96-0.66 6-1v-2c0.99-0.33 1.98-0.66 3-1l1-2c1.67-0.33 3.33-0.67 5-1l1-2c2.56-0.62 2.56-0.62 5-1v-2c1.98-0.33 3.96-0.66 6-1l1-3h3v-2c1.98-0.33 3.96-0.66 6-1v-2l5-1 1-3h3v-2c1.98-0.33 3.96-0.66 6-1v-2c1.98-0.33 3.96-0.66 6-1v-3h3v-2c1.98-0.33 3.96-0.66 6-1v-3h6v-3h6v-3h6v-3h3v-3h6v-3h6v-3h4v-3h5v-3h6v-3h4v-3l5-1v-2c0.99-0.33 1.98-0.66 3-1l1-2h3v-3h3v-3h3v-3h3v-3h3v-4h2c0.19-1.95 0.19-1.95 0.38-3.94 0.21-2.21 0.21-2.21 0.62-4.06l2-1c0.66-2.53 0.66-2.53 1-5h2l1-9h2c-0.01-1.05-0.02-2.1-0.04-3.18 0-1.37-0.01-2.75-0.02-4.13-0.01-0.69-0.02-1.38-0.03-2.09-0.01-3.15 0.09-5.59 1.09-8.6h2c-0.08-0.76-0.17-1.52-0.25-2.3-0.16-1.49-0.16-1.49-0.31-3.01-0.11-0.99-0.21-1.97-0.32-2.99-0.12-2.7-0.12-2.7 0.88-5.7h-2l-2-10 2-1v-2h-3c-0.1-0.93-0.21-1.86-0.31-2.81-0.73-3.37-1.22-4.02-3.69-6.19-2.19-3.34-2.18-6.06-2-10-0.99 0.33-1.98 0.66-3 1v-3l-2-1h2v-2h-3v-4h-3v-5h-3c-1.37-1.64-2.69-3.31-4-5-0.83-0.66-1.65-1.32-2.5-2-2.62-2.1-4.43-4.37-6.5-7l-3-2v-2h-3v-3h-2l-1-2c-1.64-0.72-3.31-1.39-5-2v-2c-0.99-0.33-1.98-0.66-3-1l-1-5c0.99-0.33 1.98-0.66 3-1 0.06-0.74 0.12-1.49 0.19-2.25 1.07-3.62 2.68-4.74 5.81-6.75h3l1-3h5l1-3zm25 67 1 2zm24 94v5l2-4-2-1z" fill="#A74975"/>
<path transform="translate(106,304)" d="m0 0h48c0.5 1.49 0.5 1.49 1 3 0.94-0.02 0.94-0.02 1.9-0.04 0.82 0 1.63-0.01 2.48-0.02 0.81-0.01 1.62-0.03 2.46-0.04 2.16 0.1 2.16 0.1 4.16 1.1v2h6v3h4c0.12 0.56 0.25 1.11 0.38 1.69 0.68 2.53 1.61 4.89 2.62 7.31h2c0.13 0.81 0.27 1.62 0.4 2.45 0.27 1.6 0.27 1.6 0.54 3.24 0.17 1.05 0.35 2.11 0.52 3.2 0.34 1.97 0.73 3.93 1.17 5.88 0.37 2.23 0.37 2.23-0.63 4.23-3.61 1.01-7.06 1.12-10.8 1.11h-3.46c-1.22 0-2.44-0.01-3.7-0.01s-2.51-0.01-3.81-0.01c-3.33 0-6.66-0.01-10-0.02-3.4-0.01-6.81-0.02-10.2-0.02-6.67-0.01-13.4-0.03-20-0.05v2h-12l-1 3h-2v2l-3 2c-0.72 2.06-0.72 2.06-1 4h-2v82h3c0.5 3.47 0.5 3.47 1 7h2v2c1.98 0.33 3.96 0.66 6 1v2c0.82-0.01 1.64-0.01 2.48-0.02 7.71-0.06 15.4-0.11 23.1-0.14 3.96-0.01 7.93-0.03 11.9-0.07 3.83-0.03 7.65-0.05 11.5-0.05 1.46-0.01 2.91-0.02 4.37-0.04 2.05-0.02 4.09-0.02 6.14-0.02 1.16-0.01 2.32-0.01 3.52-0.02 3.29 0.4 4.67 1.03 6.99 3.36 0.47 2.48 0.47 2.48 0.43 5.4-0.02 1.58-0.02 1.58-0.03 3.2-0.03 1.1-0.06 2.2-0.09 3.34-0.01 1.1-0.02 2.19-0.03 3.32-0.12 8.78-0.12 8.78-1.28 12.7h-4l-1 2c-3.18 1.06-5.43 1.11-8.76 1.1-1.12-0.01-2.24-0.01-3.39-0.01-1.17-0.01-2.33-0.02-3.54-0.03-1.18 0-2.36-0.01-3.57-0.01-2.91-0.01-5.83-0.03-8.74-0.05v2h-42v-2h-14c-0.5-0.99-0.5-0.99-1-2-1.64-0.72-3.31-1.39-5-2v-2h-4v-3c-0.99-0.33-1.98-0.66-3-1v-2c-0.99-0.33-1.98-0.66-3-1l1-2h-4c-0.2-0.55-0.41-1.11-0.62-1.68-0.41-1.09-0.41-1.09-0.82-2.2-0.26-0.71-0.53-1.43-0.81-2.17-0.73-1.99-0.73-1.99-1.75-3.95 0.5-0.99 0.5-0.99 1-2h-3c-2.84-5.71-4.66-10.6-5-17 0.49-0.99 0.49-0.99 1-2h-2c-0.76-4.72-1.13-9.25-1.13-14v-2.02c-0.01-2.17-0.01-4.34 0-6.52 0-1.52 0-3.04-0.01-4.56 0-3.19 0-6.37 0.01-9.55 0.01-4.07 0-8.13 0-12.2-0.01-3.14-0.01-6.28 0-9.42 0-1.5 0-3-0.01-4.5 0-2.1 0.01-4.2 0.01-6.3v-3.61c0.13-3.18 0.53-6.17 1.13-9.29h2c-0.02-1.24-0.04-2.48-0.06-3.75-0.01-2.91 0.13-5.46 1.06-8.25h2c0.05-0.64 0.1-1.28 0.15-1.93 0.07-0.83 0.15-1.66 0.23-2.51 0.06-0.82 0.13-1.64 0.21-2.49 0.2-1.03 0.2-1.03 0.41-2.07l2-1c0.66-2.53 0.66-2.53 1-5h3v-5h3v-3h2l1-4h6v-3h3v-3h6v-3c0.78-0.05 1.56-0.1 2.37-0.15 1.52-0.11 1.52-0.11 3.07-0.23 1.01-0.06 2.02-0.13 3.06-0.21 1.24-0.2 1.24-0.2 2.5-0.41l1-2zm75 30 1 2zm0 4 1 2zm-84 42 1 2zm82 95 1 2z" fill="#0F64D7"/>
<path transform="translate(319 356)" d="m0 0h2.16c2.35 0 4.71 0.02 7.06 0.05 1.63 0 3.26 0.01 4.9 0.01 4.29 0.01 8.59 0.04 12.9 0.07 4.39 0.04 8.77 0.05 13.2 0.06 8.6 0.04 17.2 0.09 25.8 0.15v2c2.97 0.33 5.94 0.66 9 1 0.49 1.98 0.49 1.98 1 4 2.67 2.19 2.67 2.19 5 2 0.43 1.13 0.86 2.27 1.31 3.44 0.56 1.17 1.11 2.35 1.69 3.56 1.48 0.5 1.48 0.5 3 1-0.5 1.49-0.5 1.49-1 3 0.72 1.71 1.45 3.42 2.23 5.11 1.74 4.27 1.8 8.61 1.64 13.1 0.04 1.24 0.09 2.48 0.13 3.75 0.49 0.41 0.98 0.82 1.48 1.25 2.42 2.8 1.91 6 1.86 9.53v2.39c0 2.62-0.03 5.23-0.05 7.84 0 1.81-0.01 3.63-0.01 5.44-0.01 4.77-0.04 9.54-0.08 14.3-0.03 4.86-0.04 9.73-0.06 14.6-0.03 9.55-0.08 19.1-0.14 28.6-1.98 0.33-3.96 0.66-6 1v2c-2 0.04-4 0.04-6 0l-1-1c-2.36 0.09-4.71 0.25-7.06 0.44-1.29 0.1-2.58 0.2-3.91 0.31-1 0.08-2 0.16-3.03 0.25v-2h-5l-1-3c-1.98-0.33-3.96-0.66-6-1v-2h-6c-0.5 1.49-0.5 1.49-1 3h-5v2c-3 0.87-5.65 1.12-8.77 1.1-0.89 0-1.78-0.01-2.69-0.01-0.92-0.01-1.84-0.02-2.79-0.03-0.94 0-1.87-0.01-2.84-0.01-2.3-0.01-4.61-0.03-6.91-0.05v2c-3.21 0.06-6.42 0.09-9.63 0.13-0.9 0.01-1.8 0.03-2.74 0.05-4.98 0.03-8.95-0.26-13.6-2.18-0.76-0.16-1.53-0.33-2.31-0.5-0.56-0.16-1.12-0.33-1.69-0.5l-1-2c-0.99-0.33-1.98-0.66-3-1-0.56-1.94-0.56-1.94-1-4l-2-2c-0.63-2.62-0.63-2.62-1-5h-2c-1.17-3.5-1.13-6.27-1.13-9.97-0.01-0.67-0.01-1.35-0.01-2.05 0-1.43 0-2.86 0.01-4.29 0-2.18 0-4.37-0.01-6.55 0-1.39 0-2.78 0.01-4.17v-3.83c0.13-3.14 0.13-3.14 1.13-6.14 0.99-0.49 0.99-0.49 2-1 0.65-2.53 0.65-2.53 1-5h3v-3h3v-3c1.12-1.69 1.12-1.69 3-3 3.19-0.19 3.19-0.19 6 0v-3h6l1-3h15v-2c2.92-1.46 5.5-1.11 8.76-1.1 0.99 0.01 0.99 0.01 2.01 0.01 2.11 0 4.23 0.02 6.35 0.03 1.44 0 2.88 0.01 4.31 0.01 3.52 0.01 7.05 0.03 10.6 0.05v-15l-2-1v-2c-1.98-0.49-1.98-0.49-4-1v-2h-30l-1 2c-3.42 0.03-6.84 0.05-10.2 0.06-0.97 0.01-1.94 0.02-2.94 0.03-0.93 0-1.86 0-2.83 0.01-0.86 0-1.72 0.01-2.6 0.01-2.27-0.1-4.21-0.47-6.38-1.11-2.89-7.95-3.49-17.1 0-25h2v-3c2.48-3.91 5.74-3.36 10-3.34zm27 76.3v2c-1.64-0.09-1.64-0.09-3.31-0.19-3.57-0.13-3.57-0.13-5.63 1.5-1.33 1.78-1.33 1.78-1.06 4.69h-3c-0.22 1.62-0.43 3.25-0.63 4.88-0.11 0.9-0.23 1.81-0.35 2.74-0.01 0.78-0.01 1.57-0.02 2.38l2 2 2-1v3c2.31 0.33 4.62 0.66 7 1v2h18v-2c1.3 0.02 2.6 0.04 3.94 0.06 1.35 0.02 2.71 0.01 4.06-0.06 1.29-1.07 1.29-1.07 1.06-3.56-0.02-0.81-0.04-1.61-0.06-2.44h2c0.94-4.81 1.03-7.55-1-12l1-2c-3.05-3.18-5.26-4.28-9.58-4.43-1.7 0.02-3.41 0.06-5.11 0.12-0.87 0.01-1.73 0.02-2.63 0.03-4.49-0.05-4.49-0.05-8.68 1.28z" fill="#007DD2"/>
<path transform="translate(876,356)" d="m0 0h57v2c2.97 0.33 5.94 0.66 9 1v3h3c1.35 1.65 2.69 3.32 4 5 0.99 0.33 1.98 0.66 3 1v3h3v2h2c0.22 1.1 0.22 1.1 0.44 2.22 0.33 1.66 0.69 3.32 1.08 4.97 1.63 7.21 1.88 14.3 2.04 21.7 0.06 2.39 0.13 4.78 0.19 7.17 0.03 1.05 0.05 2.1 0.08 3.18 0.15 2.42 0.55 4.44 1.17 6.77 0.14 1.37 0.24 2.75 0.32 4.13 0.04 0.8 0.08 1.6 0.12 2.42 0.04 0.85 0.08 1.7 0.12 2.57 0.04 0.9 0.09 1.79 0.13 2.71 0.58 13.4 0.36 26.8-0.07 40.2-0.03 1.15-0.06 2.31-0.09 3.49-0.04 1.08-0.08 2.15-0.12 3.26-0.04 1.45-0.04 1.45-0.09 2.92-0.32 2.33-0.32 2.33-2.32 4.33-2.61 0.23-2.61 0.23-5.88 0.2-1.17-0.01-2.34-0.02-3.54-0.02-1.22-0.02-2.44-0.04-3.7-0.06-1.24 0-2.47-0.01-3.74-0.02-3.04-0.03-6.09-0.06-9.14-0.1v-2c-1.09 0.02-2.19 0.04-3.31 0.06-3.69-0.06-3.69-0.06-6.69-1.06v-2h-12v2c-3.62 1.21-6.93 1.11-10.7 1.06-0.7 0-1.4-0.01-2.12-0.01-1.73-0.01-3.46-0.03-5.19-0.05v2c-8.6 0.23-16.6-0.08-25-2v2h-2v-3c-2.97 0.5-2.97 0.5-6 1l-1-3-5-1c-0.12-0.8-0.25-1.61-0.38-2.44-0.2-0.84-0.41-1.69-0.62-2.56l-2-1c-0.73-2.31-1.4-4.65-2-7h-1c-0.85-6.62-1.15-13.1-1.12-19.8-0.01-0.92-0.01-1.84-0.02-2.79 0-0.89 0.01-1.78 0.01-2.69v-2.42c0.14-2.53 0.58-4.88 1.13-7.35h2c0.1-0.89 0.21-1.77 0.31-2.69 1.2-5.75 3.79-9.08 8.69-12.3h4v-3h6v-2c3.19-1.59 6.63-1.1 10.1-1.06 1.14 0 1.14 0 2.29 0.01 1.86 0.01 3.73 0.03 5.59 0.05v-3h30c0.63-10.6 0.63-10.6-1-15l1-3c-1.98-0.33-3.96-0.66-6-1v-2h-39v2c-3.29 1.1-5.74 1.1-9.19 1.06-1.63-0.01-1.63-0.01-3.29-0.02-0.83-0.02-1.66-0.03-2.52-0.04v-3h-3c-1.3-2.61-1.13-4.59-1.12-7.5-0.01-0.98-0.01-1.96-0.01-2.97 0.13-2.53 0.13-2.53 1.13-4.53h2l1-7h2v-2h4v-3c5.94-0.5 5.94-0.5 12-1v-2zm43 42 2 2v-2h-2zm-25 31 1 2zm2 0 1 3-8-1c-0.43 1.21-0.43 1.21-0.88 2.44-1.12 2.56-1.12 2.56-3.12 3.56l-1 3c-0.99 0.5-0.99 0.5-2 1-0.84 3.43-0.84 3.43-1 7l4 4h3v3h9v2h15v-2c2.97-0.33 5.94-0.66 9-1v-20h-3c-0.5-1.98-0.5-1.98-1-4l-19 1v-2h-2zm64 23 1 2zm-2 28c-1.49 1.98-1.49 1.98-3 4l4-1-1-3zm-23 3v1h17v-1h-17z" fill="#0BA4B8"/>
<path transform="translate(1294,356)" d="m0 0v2c2.97 0.33 5.94 0.66 9 1v3h3v3h3c0.43 1.05 0.87 2.1 1.31 3.19 0.98 2.33 1.92 4.15 3.38 6.25 1.87 3.66 1.52 6.48 1.31 10.6h2c1.68 19.7 1.68 19.7 0.06 22.8-1.35 2.78-1.72 5.38-2.18 8.43-0.17 1.08-0.34 2.16-0.51 3.27-0.18 1.23-0.18 1.23-0.37 2.48h-2v3h-3v3h-6v3c-5.94 0.33-11.9 0.66-18 1v2c-16.3 0.5-16.3 0.5-33 1l-1 2h-3v4h-2c0.29 5.91 0.29 5.91 3.19 10.9 3.06 2.25 5.05 2.8 8.81 3.06v2c17.8 0.33 35.6 0.66 54 1v3h3v12c-0.99 0.5-0.99 0.5-2 1-0.66 2.53-0.66 2.53-1 5-4.45 0.5-4.45 0.5-9 1v2c-3.36 1.12-5.88 1.11-9.42 1.1-1.25-0.01-2.51-0.01-3.8-0.01-1.31-0.01-2.62-0.02-3.97-0.03-1.33 0-2.67-0.01-4-0.01-3.27-0.01-6.54-0.03-9.81-0.05v2h-29v-2c-1.05 0.02-1.05 0.02-2.12 0.04-0.91 0-1.82 0.01-2.76 0.02-1.35 0.02-1.35 0.02-2.74 0.04-2.38-0.1-2.38-0.1-4.38-1.1v-2l-4-1v-2c-1.48-0.5-1.48-0.5-3-1v-2c-0.99-0.33-1.98-0.66-3-1v-2c-0.99-0.33-1.98-0.66-3-1v-3h-2c-0.49-2.97-0.49-2.97-1-6h-2c-2.9-6-3-12.5-3-19h-2c-0.07-5.93-0.13-11.8-0.16-17.8-0.02-2.02-0.04-4.03-0.07-6.05-0.03-2.9-0.05-5.79-0.06-8.69-0.02-0.9-0.03-1.81-0.05-2.74v-2.54c-0.01-0.74-0.01-1.48-0.02-2.24 0.46-2.49 1.54-3.27 3.36-4.96 0.43-2.59 0.43-2.59 0.44-5.5 0.36-6.38 2.08-11.6 4.56-17.5h2l1-4h2l1-5 5-1v-2h3v-3c4.45-0.5 4.45-0.5 9-1v-2c18.4-0.93 36.6-0.98 55 0zm-37 24v2l-5 1-1 6h-2c-1.86 6.99-2.74 13.8-2 21 1.67 3.22 1.67 3.22 4.62 3.69 0.79 0.1 1.57 0.2 2.38 0.31v2h9l1-2c2.72-0.41 2.72-0.41 6.06-0.62 1.11-0.08 2.21-0.15 3.35-0.23 0.85-0.05 1.71-0.1 2.59-0.15v-3c1.21 0.03 1.21 0.03 2.44 0.06 2.49 0.24 2.49 0.24 3.56-1.06 0.04-1.67 0.04-3.33 0-5h2c-0.64-5.14-1.68-9.99-3-15h-2v-3h-3v-3c-2.97-0.5-2.97-0.5-6-1v-2c-1.42-0.2-2.83-0.38-4.25-0.56-0.79-0.11-1.58-0.21-2.39-0.32-2.37-0.12-4.11 0.18-6.36 0.88zm26 15c0.99 1.49 0.99 1.49 2 3v-3h-2z" fill="#00BEA8"/>
<path transform="translate(470,301)" d="m0 0h30v3h13v3h5l-1 3c0.23 1.94 0.46 3.87 0.73 5.8 1.09 8.97 1.09 8.97-1.73 13.2-0.5 1.49-0.5 1.49-1 3h-14c-2.33 0.33-4.67 0.66-7 1v2c-1.11 0.23-2.23 0.45-3.38 0.69-3.66 0.92-3.66 0.92-5.06 3.43-0.74 3.79-0.81 7.02-0.56 10.9 2.14 2.14 3.13 2.43 6 3v2l21 1c-0.5 0.99-0.5 0.99-1 2-7.07 0.14-14-0.25-21-1v3c1.98 0.66 3.96 1.32 6 2-0.31 1.61-0.31 1.61-0.62 3.25-0.37 3.67-0.43 4.84 1.62 7.75l2 2c-0.29 1.67-0.63 3.34-1 5l1 2c-1.49 0.5-1.49 0.5-3 1l2 4c-4.6 1.47-8.13 2.05-13 2 0 1.12 0 2.24 0.01 3.39 0.02 10.5 0.03 21.1 0.04 31.6 0.01 5.41 0.01 10.8 0.03 16.2 0.01 5.22 0.01 10.4 0.01 15.7 0.01 2 0.01 3.99 0.02 5.99v8.37c0.01 0.83 0.01 1.66 0.01 2.51 0 3.64-0.23 6.65-1.12 10.2h-20l-1 2h-6v-2h-11c-1.21-3.62-1.16-6.95-1.17-10.7-0.01-1.17-0.01-1.17-0.02-2.38-0.02-1.7-0.03-3.41-0.04-5.12-0.02-2.71-0.04-5.41-0.06-8.12-0.08-7.7-0.14-15.4-0.19-23.1-0.03-4.71-0.07-9.42-0.12-14.1-0.01-1.79-0.03-3.58-0.03-5.37-0.02-2.52-0.04-5.03-0.07-7.55v-2.21c-0.07-5.29-0.99-10.2-2.3-15.3h-8l-1-3h-3v-3h-2c-2.93-5.86-0.91-13.4 1.05-19.3 0.95-1.71 0.95-1.71 3.95-2.71l1-2c1.67-0.33 3.33-0.67 5-1l1-2h3v-3h2c-0.03-0.69-0.07-1.38-0.11-2.09-0.16-5.77 0.31-10.2 2.38-15.6 1.35-4.33 1.49-8.84 1.73-13.4h3c-0.19-0.62-0.37-1.24-0.56-1.88-0.44-2.12-0.44-2.12 0.56-4.12h3v-3h3v-3h3v-3c2.25-3.08 4.38-3.33 8-4l1-2zm-25 94 1 3z" fill="#0282D3"/>
<path transform="translate(215 355)" d="m0 0c1.68 0.07 1.68 0.07 3.39 0.15 1.17 0.05 2.33 0.11 3.54 0.17 1.76 0.07 1.76 0.07 3.57 0.15 2.91 0.13 5.83 0.27 8.74 0.41v2l8 1c-0.02 1.24-0.04 2.47-0.06 3.75-0.01 2.91 0.13 5.46 1.06 8.25h2c0.49 0.99 0.49 0.99 1 2h2l1-2h5c0.18-1.46 0.18-1.46 0.37-2.94 0.21-1.01 0.42-2.02 0.63-3.06l2-1c0.14-0.78 0.29-1.57 0.44-2.38 0.65-3.04 1.05-3.82 3.56-5.62 3.09-0.34 3.09-0.34 6.85-0.29 0.67 0 1.33 0 2.01 0.01 2.11 0.02 4.22 0.05 6.33 0.09 1.43 0.02 2.86 0.03 4.29 0.04 3.51 0.04 7.01 0.09 10.5 0.15 0.02 4 0.04 8 0.05 12 0.01 1.36 0.02 2.72 0.02 4.08 0.02 1.96 0.02 3.93 0.03 5.89 0 1.18 0.01 2.36 0.01 3.57-0.11 3.55-0.55 6.95-1.11 10.5h-2v3h-9l-1 3h-23l-1 3h-9v3h-2c-1.32 8-1.13 16-1.1 24.1v4.68c0.01 4.07 0.02 8.15 0.03 12.2 0.01 4.17 0.01 8.34 0.02 12.5 0.01 8.16 0.03 16.3 0.05 24.5-2.48 0.49-2.48 0.49-5 1v2h-6v-2c-0.52 0.35-1.03 0.7-1.56 1.06-3.38 1.3-5.88 0.47-9.44-0.06-2.71 0.18-5.31 0.57-8 1v-2h-6c-1.58-15.8-1.58-15.8 0-19h-2c-2.03-9.34-2.28-18.4-2.21-27.9 0.02-2.43 0.02-4.85 0.02-7.27 0.01-1.57 0.01-3.13 0.02-4.69v-2.17c0.04-4.4 0.48-8.62 1.17-13 0.04-1.42 0.04-2.84 0-4.25 0-5.75 0-5.75 2-7.75-0.33-0.5-0.66-0.99-1-1.5-1.98-4.94-1.27-10.4 0-15.5h2c-0.17-1.26-0.33-2.52-0.5-3.81-0.32-2.46-0.5-4.71-0.5-7.19l-1-1c-1.05-3.77-1.15-5.61 0.25-9.31 2.81-4.32 5.74-3.79 10.5-3.57z" fill="#017BD0"/>
<path transform="translate(746,304)" d="m0 0c4.46-0.03 8.92-0.05 13.4-0.06 1.27-0.01 2.54-0.02 3.85-0.03 1.81 0 1.81 0 3.67-0.01 1.68-0.01 1.68-0.01 3.39-0.01 2.71 0.11 2.71 0.11 4.71 1.11v2h22v3h9c0.5 0.99 0.5 0.99 1 2 2.53 0.66 2.53 0.66 5 1v5c0.99 0.33 1.98 0.66 3 1v3h3c-0.5 1.49-0.5 1.49-1 3-0.07 2.74-0.09 5.45-0.06 8.19 0 0.75 0.01 1.5 0.01 2.27 0.01 1.85 0.03 3.69 0.05 5.54-0.73 0.01-1.46 0.02-2.21 0.02-6.87 0.08-13.7 0.17-20.6 0.27-3.53 0.05-7.06 0.09-10.6 0.13-4.06 0.05-8.12 0.11-12.2 0.17-1.26 0.01-2.52 0.02-3.83 0.03-1.18 0.02-2.36 0.04-3.58 0.06-1.03 0.01-2.07 0.03-3.14 0.04-2.96 0.29-5.12 1.11-7.84 2.28-3.35 0.32-6.68 0.44-10 0.56-2.94 0.2-2.94 0.2-4.79 1.81-1.48 2.07-2.24 4.27-3.17 6.63-0.99 0.5-0.99 0.5-2 1 0.04 1.09 0.08 2.19 0.12 3.31-0.12 3.69-0.12 3.69-2.12 6.69-1.68 10.1-1.1 20.8-1 31h-2c0.14 2.88 0.29 5.75 0.44 8.62 0.04 0.81 0.08 1.62 0.12 2.45 0.18 3.43 0.41 6.75 0.98 10.1 0.66 3.98 0.43 7.86 0.3 11.9 0.17 3.04 0.88 5.15 2.16 7.9-0.99-0.33-1.98-0.66-3-1v-2h-2c-1.14-4.22-0.8-7.53-0.06-11.8 0.19-1.16 0.39-2.33 0.59-3.52 0.23-1.32 0.23-1.32 0.47-2.67h-2v7h-1c0.02-0.63 0.05-1.25 0.07-1.9 0.02-0.82 0.04-1.63 0.05-2.48 0.03-0.81 0.05-1.62 0.08-2.46 0.01-2.37 0.01-2.37-2.2-4.16-0.16-2.72-0.16-2.72-0.06-6.06 0.07-4.03 0.04-7.88-0.5-11.9-0.48-3.55-0.13-6.52 0.56-10.1-0.5-0.99-0.5-0.99-1-2l1-2h-2v2h-2v-2c-0.74 0.23-1.49 0.45-2.25 0.69-2.75 0.31-2.75 0.31-5-0.94-1.75-1.75-1.75-1.75-2.75-4.75 0.44-2.69 0.44-2.69 1-5h-2v-4h-3c-1.48-2.96-1.06-5.74-1-9l-1 1-3 2c0.02-0.91 0.04-1.81 0.06-2.75-0.05-2.69-0.13-4.75-1.06-7.25l-2-1c0.99-0.5 0.99-0.5 2-1-0.64-0.23-1.28-0.45-1.94-0.69-2.06-1.31-2.06-1.31-2.81-3.93-0.08-0.79-0.16-1.57-0.25-2.38h3v-6l2-1c0.66-2.53 0.66-2.53 1-5h2l1-3h3v-3h3v-3h3v-3h4v-2l5-1 1-3h8v-3h15l1-3z" fill="#1691BD"/>
<path transform="translate(694,342)" d="m0 0 6 5-1 2c0.64 2.01 1.31 4.01 2 6v3l2-3 2 1v9h3v4h2c-0.08 0.91-0.16 1.81-0.25 2.75-0.06 3.35-0.06 3.35 2.25 5.63 0.66 0.53 1.32 1.07 2 1.62 1.49-0.5 1.49-0.5 3-1l2 1v2h2v-2h2c1.13 7.39 1.13 7.39 0.5 10.4-0.6 3.16-0.37 5.87-0.06 9.07 0.31 3.3 0.57 6.41 0.41 9.72-0.13 2.86-0.13 2.86 1.64 4.64 2.43 3.54 1.82 7.27 1.7 11.4-0.02 1.26-0.02 1.26-0.04 2.55-0.04 2.06-0.09 4.13-0.15 6.2h2c4 4.47 4 4.47 4 7 0.99 0.5 0.99 0.5 2 1l1 2c0.99 0.33 1.98 0.66 3 1v2c0.93-0.04 1.86-0.08 2.81-0.12 3.19 0.12 3.19 0.12 6.19 2.12 2.86 0.31 2.86 0.31 6.09 0.27h3.62c1.88-0.01 1.88-0.01 3.79-0.02 1.25 0.01 2.5 0.02 3.79 0.02h3.62c1.09-0.01 2.19-0.01 3.32-0.01 2.98-0.06 2.98-0.06 5.77-2.26 2.19 0.38 2.19 0.38 4 1-6.83 4.15-11.8 5.17-19.9 5.12-0.68 0.01-1.36 0.01-2.06 0.02-4.45-0.01-8.67-0.42-13.1-1.14l1 3c2.25 0.17 4.5 0.33 6.75 0.5 1.25 0.09 2.51 0.19 3.8 0.28 2.48 0.16 4.96 0.22 7.45 0.22l1-2v2c1.98 0.33 3.96 0.66 6 1-2.22 2.56-3.72 3.31-7 4-1.35 0.64-2.69 1.3-4 2l2 1c0.33 1.67 0.67 3.33 1 5l2 1c-0.99 0.5-0.99 0.5-2 1 1.98 0.33 3.96 0.66 6 1l1 4h-2l-1 3c-5.53 1.13-5.53 1.13-7.89 0.46-2.68-0.59-4.5-0.09-7.17 0.54-6.46 1.29-12.8 1.15-19.1-0.61-1.9-0.61-1.9-0.61-3.81 0.61v-2l-5-1v-2c-1.18-0.22-1.18-0.22-2.38-0.44-2.62-0.56-2.62-0.56-4.62-1.56l-1 2c-0.34-0.96-0.34-0.96-0.69-1.94-1.16-2.33-1.16-2.33-3.93-2.81-0.79-0.08-1.57-0.17-2.38-0.25l1-2c-1.49-0.5-1.49-0.5-3-1v-2l-12-3c-1-5-1-5 0-8h-3c-1.12-4.75-1.12-4.75 0-7h-2c-1.72-3.68-2.33-6.94-2.66-10.9-0.26-2.14-0.26-2.14-1.35-4.28-1.17-3.28-1.24-5.88-1.23-9.36-0.01-1.31-0.01-2.62-0.01-3.97 0-1.42 0.01-2.85 0.02-4.27v-4.4c0-3.06 0.01-6.13 0.02-9.19 0.02-3.93 0.03-7.86 0.02-11.8 0-3.02 0.01-6.04 0.02-9.07v-4.34c0.01-2.03 0.01-4.05 0.02-6.07 0.01-1.15 0.01-2.3 0.02-3.49 0.13-2.83 0.13-2.83 1.13-5.83h2l1-12h3v-5z" fill="#0A9BB9"/>
<path transform="translate(1162,363)" d="m0 0c2.33 1.05 4.68 2.02 7.04 3 1.96 1 1.96 1 2.96 3h4c8.69 10.6 9.6 24.9 9.32 38.1l-0.03 4.14c-0.03 3.58-0.08 7.15-0.13 10.7-0.09 5.76-0.15 11.5-0.19 17.3-0.02 2-0.06 4-0.09 5.99-0.02 1.22-0.03 2.43-0.04 3.68-0.02 1.06-0.04 2.12-0.05 3.22 0.22 3.02 1 5.13 2.21 7.89 0.23 2.68 0.23 2.68 0.2 5.52-0.01 1.02-0.02 2.04-0.02 3.1-0.02 1.05-0.04 2.11-0.06 3.19 0 1.08-0.01 2.15-0.02 3.26-0.03 2.64-0.06 5.29-0.1 7.93-5.36 0.12-10.7 0.21-16.1 0.27-1.82 0.03-3.65 0.06-5.47 0.11-2.62 0.06-5.23 0.09-7.85 0.11-0.82 0.02-1.64 0.05-2.48 0.08-2.3 0-2.3 0-6.13-0.57-3.13-3.16-3.35-6.31-3.37-10.7 0.02-0.72 0.03-1.45 0.04-2.2 0-0.77 0-1.55 0.01-2.35 0.01-2.55 0.04-5.1 0.07-7.66 0.01-1.77 0.02-3.55 0.03-5.33 0.1-14.4 0.46-28.9 0.95-43.3 0.03-0.79 0.05-1.58 0.08-2.39 0.04-1.45 0.09-2.9 0.15-4.35 0.14-4.48-0.31-8.17-0.96-12.7h-16v-1l5-1v-3c1.98-0.66 3.96-1.32 6-2v-3l1-1c-0.49-0.6-0.99-1.2-1.5-1.81-1.5-2.19-1.5-2.19-1.5-5.19l-2-1c3.73-0.88 7.17-1.09 11-1l1-2-2-1c-0.62-2.06-0.62-2.06-1-4-0.99 0.5-0.99 0.5-2 1-5.39 2.23-5.39 2.23-8.38 1.12-0.53-0.37-1.07-0.74-1.62-1.12l2-1v-2l-4-2c3.37-0.2 6.75-0.38 10.1-0.56 1.43-0.09 1.43-0.09 2.89-0.17 12-0.63 12-0.63 17 2.73z" fill="#00B9A6"/>
<path transform="translate(1543,313)" d="m0 0c5.75-0.12 5.75-0.12 8 1v2c1.42-0.09 1.42-0.09 2.88-0.19 1.03 0.06 2.06 0.13 3.12 0.19l2 3 2 1v2c0.99 0.33 1.98 0.66 3 1l2 2c0.99 0.33 1.98 0.66 3 1v2c0.99 0.33 1.98 0.66 3 1v2c1.13 1.13 2.27 2.26 3.44 3.37 2.55 2.66 4.65 5.66 6.81 8.64 1.82 2.06 3.31 2.84 5.75 3.99 0.22 0.99 0.22 0.99 0.44 2 0.18 0.66 0.37 1.32 0.56 2 0.83 0.31 1.65 0.62 2.5 0.94 0.83 0.35 1.65 0.7 2.5 1.06 0.81 2.62 0.81 2.62 1 5h2v3h3v91l-2 1v3l-4-1c0.23 1.26 0.45 2.52 0.69 3.81 0.51 3.91 0.51 3.91-1.13 6.19-0.51 0.33-1.03 0.66-1.56 1-2.25-2.05-3-3.01-4-6-1.77-0.63-1.77-0.63-4-1-2-0.66-4-1.32-6-2-0.1-0.84-0.2-1.69-0.3-2.55-0.15-1.1-0.3-2.2-0.45-3.33-0.14-1.09-0.28-2.18-0.42-3.3-0.54-2.95-0.54-2.95-2.91-4.2-0.63-0.21-1.27-0.41-1.92-0.62l1-3h2c-0.01-1.05-0.02-2.1-0.04-3.18 0-1.37-0.01-2.75-0.02-4.13-0.01-0.69-0.02-1.38-0.03-2.09-0.01-3.15 0.09-5.59 1.09-8.6h2c-0.08-0.76-0.17-1.52-0.25-2.3-0.16-1.49-0.16-1.49-0.31-3.01-0.16-1.48-0.16-1.48-0.32-2.99-0.12-2.7-0.12-2.7 0.88-5.7h-2l-2-10 2-1v-2h-3c-0.15-1.39-0.15-1.39-0.31-2.81-0.73-3.37-1.22-4.02-3.69-6.19-2.19-3.34-2.18-6.06-2-10-0.99 0.33-1.98 0.66-3 1v-3c-0.99-0.5-0.99-0.5-2-1h2v-2h-3v-4h-3v-5h-3c-1.37-1.64-2.69-3.31-4-5-0.83-0.66-1.65-1.32-2.5-2-2.62-2.1-4.43-4.37-6.5-7l-3-2v-2h-3v-3h-2l-1-2c-1.64-0.72-3.31-1.39-5-2v-2c-0.99-0.33-1.98-0.66-3-1l-1-5c0.99-0.33 1.98-0.66 3-1 0.09-1.11 0.09-1.11 0.19-2.25 1.07-3.62 2.68-4.74 5.81-6.75h3l1-3h5l1-3zm25 67 1 2z" fill="#3333AC"/>
<path transform="translate(445,385)" d="m0 0h2v2c1.11-0.28 1.11-0.28 2.25-0.56 2.75-0.44 4.14-0.22 6.75 0.56h3c1.52 0.06 1.52 0.06 3.06 0.12 3.06 0.21 3.06 0.21 4.94-2.12l4 2c-1 2-1 2-2.69 2.62-2.79 0.46-5.48 0.44-8.31 0.38 0.5 1.14 0.5 1.14 1 2.31 1 2.69 1 2.69 1 5.69h-2v2c0.99 0.33 1.98 0.66 3 1l-1 2c1.98-0.33 3.96-0.66 6-1l2 3h3c4 11.6 4 11.6 4 16l1 3c2.56-5.19 2.4-10.3 2.57-15.9 0.15-3.83 0.26-5.8 2.43-9.06 1.79 4.62 2.25 8.46 2.24 13.4 0 0.72 0.01 1.43 0.01 2.17 0 2.35-0.01 4.7-0.02 7.05v4.93c0 3.43-0.01 6.86-0.02 10.3-0.02 4.4-0.03 8.79-0.02 13.2 0 3.38-0.01 6.77-0.02 10.2v4.87c-0.01 2.26-0.01 4.52-0.02 6.79-0.01 1.93-0.01 1.93-0.02 3.9-0.13 3.25-0.13 3.25-1.13 7.25h-20l-1 2h-6v-2h-11c-1.21-3.64-1.16-6.98-1.16-10.8-0.01-0.79-0.01-1.58-0.02-2.4-0.01-2.62-0.02-5.23-0.02-7.85-0.01-1.82-0.01-3.64-0.02-5.46-0.01-3.82-0.02-7.63-0.02-11.4-0.01-4.89-0.03-9.77-0.06-14.7-0.02-3.76-0.02-7.52-0.02-11.3-0.01-1.8-0.01-3.6-0.03-5.4-0.01-2.52-0.01-5.05-0.01-7.57-0.01-0.74-0.01-1.48-0.02-2.24 0.04-5.71 1.31-9.85 5.38-13.9-0.99 0.33-1.98 0.66-3 1l-2-6z" fill="#027BC5"/>
<path transform="translate(211,378)" d="m0 0c3 1 3 1 5 4l3 2c0.62 0.56 1.24 1.11 1.88 1.69 2.1 1.6 2.1 1.6 4.87 1 0.74-0.23 1.49-0.46 2.25-0.69l1 5 3-2c2.19-0.62 2.19-0.62 4-1l2 5c-2.91 0.81-4.46 1.22-7.31 0.06-0.56-0.35-1.12-0.7-1.69-1.06l1 3c0.94-0.03 0.94-0.03 1.9-0.07 0.82-0.02 1.63-0.04 2.48-0.05 1.21-0.04 1.21-0.04 2.46-0.08 2.16 0.2 2.16 0.2 4.16 2.2l-2 2v3c-0.02 0.8-0.05 1.61-0.07 2.43-0.11 5.78 0.1 11.4 0.76 17.1 1.47 12.7 1.75 25.4 1.93 38.2 0.04 2.17 0.08 4.35 0.12 6.52 0.1 5.24 0.18 10.5 0.26 15.7-2.47 0.5-2.47 0.5-5 1v2h-6v-2c-0.52 0.35-1.03 0.7-1.56 1.06-3.38 1.3-5.88 0.47-9.44-0.06-2.71 0.18-5.31 0.58-8 1v-2h-6c-1.58-15.8-1.58-15.8 0-19h-2c-2.26-10.3-2.23-20.3-2.12-30.8 0.01-1.68 0.01-3.36 0.02-5.04 0.02-4.07 0.06-8.14 0.1-12.2 1.49-0.5 1.49-0.5 3-1 2.26 1.4 4.02 3.2 6 5-0.5-1.49-0.5-1.49-1-3 0.32-1.67 0.65-3.34 1-5 0.04-2 0.05-4 0-6h2c-0.29-1.52-0.58-3.04-0.88-4.56-0.17-0.92-0.35-1.83-0.53-2.77-0.58-2.89-0.58-2.89-1.9-6.42-0.88-4.15 0.33-5.61 2.31-9.25-0.2-2.79-0.2-2.79-1-5z" fill="#0E65D8"/>
<path transform="translate(1093 518)" d="m0 0c0.7 0 1.4 0.01 2.13 0.01 1.73 0.02 3.45 0.03 5.18 0.05v3h6c-0.17 0.55-0.35 1.1-0.52 1.66-0.56 2.77-0.35 5.01-0.05 7.82 0.6 6.3 0.7 12.5 0.67 18.8v3.38c-0.01 3.51-0.02 7.03-0.03 10.5-0.01 2.4-0.01 4.81-0.02 7.21-0.01 5.85-0.03 11.7-0.05 17.5h2c0.93 4.72 1.23 7.68-1 12h-2l-1 2c-0.76-0.18-1.52-0.37-2.31-0.56-2.78-0.67-2.78-0.67-5.69 0.56-1.21 2-1.21 2-2 4l-5-1-1 6h-2v3l-5-2 1 4h-2c-0.49 0.99-0.49 0.99-1 2v-6h-3c-0.36-3.56-0.71-7.12-1.06-10.7-0.1-1.01-0.21-2.02-0.31-3.06-0.1-0.97-0.19-1.95-0.29-2.96-0.13-1.34-0.13-1.34-0.27-2.71-0.07-2.69 0.31-4.98 0.93-7.59h-2c-1.44-6.05-1.18-12.2-1.18-18.3 0-2.15-0.02-4.3-0.04-6.44-0.01-1.38-0.01-2.75-0.01-4.12 0-1.24-0.01-2.49-0.01-3.76 0.24-3.25 0.93-5.4 2.24-8.34 0.17-2.75 0.17-2.75 0-5.62-0.12-6.01 0.71-11.5 2-17.4h6v-2c3.62-1.2 6.93-1.11 10.7-1.06z" fill="#AC4C78"/>
<path transform="translate(370,410)" d="m0 0c1.6 7.96 2.39 14.2 0 22 1.49 0.5 1.49 0.5 3 1-0.5 1.49-0.5 1.49-1 3l-3-2v-2h-23v2c-2.97 0.33-5.94 0.66-9 1-0.5 2.48-0.5 2.48-1 5-2.97 0.5-2.97 0.5-6 1v-4l-7-2v-2c-2.31-0.33-4.62-0.66-7-1-0.09 0.84-0.09 0.84-0.19 1.69-0.81 2.31-0.81 2.31-3.43 4.75-1.18 1.27-1.18 1.27-2.38 2.56 0.15 2.66 0.15 2.66 1 5l-1 2c-1.49 0.5-1.49 0.5-3 1v2l5 1c-0.02 0.74-0.04 1.49-0.06 2.25-0.04 2.63-0.04 2.63 0.53 4.63 0.57 2.29 0.85 4.52 1.09 6.87 0.13 1.2 0.13 1.2 0.26 2.42 0.09 0.91 0.09 0.91 0.18 1.83 0.99-0.5 0.99-0.5 2-1l2 2c1.49 0.99 1.49 0.99 3 2v3c0.93 0.29 1.86 0.58 2.81 0.88 3.19 1.12 3.19 1.12 6.19 3.12h3v3c-3.54 2.36-5.13 2.27-9.31 2.25-1.11 0.01-2.22 0.01-3.37 0.02-3.41-0.28-6.12-1.08-9.32-2.27-0.76-0.17-1.53-0.33-2.31-0.5-0.56-0.17-1.12-0.33-1.69-0.5l-1-2c-0.99-0.33-1.98-0.66-3-1-0.56-1.94-0.56-1.94-1-4l-2-2c-0.62-2.62-0.62-2.62-1-5h-2c-1.17-3.5-1.13-6.27-1.13-9.97 0-0.68 0-1.35-0.01-2.05 0-1.43 0.01-2.86 0.01-4.29 0-2.18 0-4.37-0.01-6.55 0-1.39 0.01-2.78 0.01-4.17v-3.83c0.13-3.14 0.13-3.14 1.13-6.14l2-1c0.66-2.53 0.66-2.53 1-5h3v-3h3v-3c1.12-1.69 1.12-1.69 3-3 3.19-0.19 3.19-0.19 6 0v-3h6l1-3c5.71-0.34 11.4-0.66 17.1-0.96 1.94-0.11 3.88-0.22 5.82-0.34 2.8-0.16 5.6-0.31 8.4-0.46 0.86-0.05 1.72-0.11 2.61-0.16 5.16-0.25 9.15 0.21 14 1.92z" fill="#1384D9"/>
<path transform="translate(1020,380)" d="m0 0 1 2h2l1-2c0.99 0.33 1.98 0.66 3 1v3c0.76 0.21 1.53 0.41 2.31 0.62 3.51 1.8 4.22 3.81 5.69 7.38h-2v3h-3v33h-2c0.02 1.25 0.02 1.25 0.03 2.52 0.04 3.09 0.06 6.19 0.08 9.28 0.01 1.99 0.04 3.99 0.07 5.98 0.01 1.88 0.01 1.88 0.02 3.8 0.01 1.74 0.01 1.74 0.03 3.51-0.23 2.91-0.23 2.91-2.23 5.91-0.68 0.25-1.36 0.5-2.06 0.75-0.64 0.41-1.28 0.82-1.94 1.25-0.82 3.56-0.82 3.56-1 7-0.97 0.29-1.94 0.58-2.94 0.88-3.17 0.76-3.17 0.76-4.06 3.12-1.81-0.19-1.81-0.19-4-1-2.53-3.35-3-4.7-3-9h-6c0.33-1.09 0.66-2.19 1-3.31 1.26-4.66 0.94-7.21-0.5-11.7-0.93-2.9-1.5-4.93-1.5-8h-4l-1-13h-1v-11h1c0.04-0.76 0.07-1.52 0.11-2.3 0.07-0.99 0.13-1.99 0.2-3.01 0.06-0.99 0.12-1.97 0.18-2.99 0.56-2.94 1.2-3.88 3.51-5.7l-1-2h3c-0.02-0.74-0.04-1.49-0.06-2.25 0.07-3.31 0.58-5.79 2.06-8.75 1.13-0.45 2.27-0.91 3.44-1.38 3.6-1.26 3.6-1.26 5-3.81 0.18-0.6 0.37-1.19 0.56-1.81l1 2c0.62-0.35 1.24-0.7 1.88-1.06 0.7-0.31 1.4-0.62 2.12-0.94l2 1 1-2zm6 46 1 3z" fill="#00A5A4"/>
<path transform="translate(319 356)" d="m0 0h2.16c2.35 0 4.71 0.02 7.06 0.05 1.63 0 3.26 0.01 4.9 0.01 4.29 0.01 8.59 0.04 12.9 0.07 4.39 0.04 8.77 0.05 13.2 0.06 8.6 0.04 17.2 0.09 25.8 0.15v2c2.97 0.33 5.94 0.66 9 1 0.49 1.98 0.49 1.98 1 4 2.67 2.19 2.67 2.19 5 2 0.43 1.13 0.86 2.27 1.31 3.44 0.56 1.17 1.11 2.35 1.69 3.56 1.48 0.5 1.48 0.5 3 1-0.5 1.49-0.5 1.49-1 3v4c-1.49-0.49-1.49-0.49-3-1v-2l-2-1c-1.18-0.8-2.34-1.61-3.5-2.44-0.61-0.43-1.22-0.86-1.85-1.31-1.65-1.25-1.65-1.25-3.65-3.25-5.64-1.52-10.7-1.46-16.1 0.7-4.3 2.99-5.32 8.62-6.33 13.5-0.24 1.59-0.4 3.19-0.54 4.79l2 1h-6l-1-3h-30l-1 2c-3.42 0.03-6.84 0.05-10.2 0.06-0.97 0.01-1.94 0.02-2.94 0.03-0.93 0-1.86 0-2.83 0.01-0.86 0-1.72 0.01-2.6 0.01-2.27-0.1-4.21-0.47-6.38-1.11-2.89-7.95-3.49-17.1 0-25h2v-3c2.48-3.91 5.74-3.36 10-3.34z" fill="#1280D3"/>
<path transform="translate(798,389)" d="m0 0c2.31-0.19 2.31-0.19 5 0l3 3c1.99-0.19 1.99-0.19 4-1 1.33-0.33 2.67-0.67 4-1l1 3c2.5 1.7 2.5 1.7 5 3l-1 8h-3c-0.99 1.49-0.99 1.49-2 3 2.04 4.06 2.04 4.06 6 6 0.17 4.55 0.33 9.1 0.48 13.6 0.05 1.54 0.11 3.08 0.17 4.62 0.8 21.4 0.8 21.4-0.65 31.7-2.14 2.14-3.13 2.43-6 3 1.83 3.17 1.83 3.17 5 5-4.17 0.08-7.93-0.07-12-1h-2v-2c-0.99-0.33-1.98-0.66-3-1h2v-2l-4 2-6-6c0.99-0.5 0.99-0.5 2-1l-2-2h2l-1-3 1-3-2-1c1.29-1.38 2.63-2.71 4-4h2v-2l-2-1h2v-4c-0.99-0.33-1.98-0.66-3-1 0.99-0.5 0.99-0.5 2-1l-1-2c0.21-2.52 0.58-4.99 0.94-7.49 0.07-2.83-0.55-4.1-1.94-6.51-0.57-2.4-1-4.54-1-7l-2-2v-2l2-1-1-2c0.63-2.34 1.3-4.68 2-7v-2l-2-1v-4l3-2v-3z" fill="#0A9CBA"/>
<path transform="translate(550,335)" d="m0 0c2.62 3.06 3 3.73 3 8l1-2c0.99 0.5 0.99 0.5 2 1l-1 3h-2c0.35 1.07 0.7 2.14 1.06 3.25 1.21 4.82 1.21 4.82-0.06 7.75-0.54 0.87-1.07 1.73-1.62 2.62-0.46 0.79-0.91 1.57-1.38 2.38 0.5 0.99 0.5 0.99 1 2-0.78 0.31-1.57 0.62-2.38 0.94-3.53 1.23-3.53 1.23-5.62 4.06l-4-1-2 5c0.99 0.5 0.99 0.5 2 1h-2v4c0.99 0.5 0.99 0.5 2 1v1h3c4.79 8.03 4.79 8.03 5 11l-2 3 1 3-8-1v-6l-11-1v-2h-13v2c-2.94 0.98-4.83 1.12-7.89 1.1-0.93-0.01-1.87-0.01-2.84-0.01-1.46-0.01-1.46-0.01-2.96-0.03-1.48 0-1.48 0-2.99-0.01-2.44-0.01-4.88-0.03-7.32-0.05v-1c3.46-0.5 3.46-0.5 7-1-0.5-1.49-0.5-1.49-1-3l-2-1c0.35-0.5 0.7-0.99 1.06-1.5 1.35-3.59 0.88-6.82-0.06-10.5l-2-3v-3h2v-3c-0.6-0.1-1.2-0.21-1.81-0.31-2.47-0.78-3.51-1.76-5.19-3.69l1-2c2.85 0.11 5.71 0.24 8.56 0.38 1.2 0.04 1.2 0.04 2.43 0.09 4.97 0.24 9.27 0.97 14 2.53v2c0.99 0.33 1.98 0.66 3 1l3 2-1 3 4 4v-6c0.99-0.33 1.98-0.66 3-1l1-2c1.67-0.33 3.33-0.67 5-1l1-2c2.56-0.62 2.56-0.62 5-1 0.29-0.89 0.58-1.77 0.88-2.69 0.95-2.81 1.99-5.56 3.12-8.31h2v-8h3v4h2v-8zm-29 38 1 3v-3h-1zm-21 14v1h11v-1h-11z" fill="#178FBC"/>
<path transform="translate(1237,446)" d="m0 0c2 2 2 2 2.44 4.38 0.62 2.92 1.77 4.28 3.56 6.62v3h13l-3-2-1-3h6v2c17.8 0.33 35.6 0.66 54 1v3h3l-1 3-3-2c-2.29-0.24-2.29-0.24-4.69-0.12-1.21 0.02-1.21 0.02-2.45 0.05-0.61 0.02-1.23 0.05-1.86 0.07l7 2c-0.35 8.35-0.35 8.35-3.06 11.1-0.96 0.47-0.96 0.47-1.94 0.94 0.49 0.99 0.49 0.99 1 2-2.27 1.14-3.55 1.1-6.06 1.06-2.47-0.04-2.47-0.04-4.94-0.06-2.34-0.66-4.67-1.32-7-2v-2c-1.26 0.14-2.52 0.29-3.81 0.44-1.06 0.12-1.06 0.12-2.15 0.24-2.23 0.29-2.23 0.29-5.04 1.32-3.81 0.23-7.62 0.38-11.4 0.52-3.58 0.48-5.01 1.03-7.57 3.48l-2-1v-2c-3.63-0.15-3.63-0.15-7 1-2.56-0.81-2.56-0.81-5-2l-1-2c-0.76 0.08-1.53 0.17-2.31 0.25-2.69-0.25-2.69-0.25-4.38-2-2.71-4.64-3.31-6.83-3.31-12.2h-2v-4l-2-1h2l-1-3c2.53-2.53 5.25-4.72 8-7z" fill="#00BAA6"/>
<path transform="translate(470,301)" d="m0 0h30v3h13v3h5l-1 3c0.23 1.94 0.46 3.87 0.73 5.8 1.09 8.97 1.09 8.97-1.73 13.2-0.5 1.49-0.5 1.49-1 3h-14c-2.33 0.33-4.67 0.66-7 1v2c-3.47 0.5-3.47 0.5-7 1l-1-3 2-3h3l1-2c0.5-0.62 0.99-1.24 1.5-1.88 1.62-2 1.62-2 2-4.31 0.17-0.6 0.33-1.19 0.5-1.81 0.99-0.33 1.98-0.66 3-1l2-1v-2c-0.72 0.19-1.44 0.37-2.19 0.56-2.97 0.47-4.94 0.32-7.81-0.56-0.5-0.99-0.5-0.99-1-2l-1 2h-6l-1 2 2 1c-3.57 1.14-6.3 2.01-10.1 1.94-3.67 0.08-5.68 1.4-8.94 3.06-2.34 0.51-4.68 0.93-7.05 1.28-2.15 0.56-2.15 0.56-3.22 2.79-0.24 0.63-0.48 1.27-0.73 1.93h-4c-1.35-2.71-1.07-5.01-1-8h3c-0.19-0.62-0.37-1.24-0.56-1.88-0.44-2.12-0.44-2.12 0.56-4.12h3v-3h3v-3h3v-3c2.25-3.08 4.38-3.33 8-4l1-2z" fill="#137DCA"/>
<path transform="translate(579,336)" d="m0 0h1c0.36 2.44 0.72 4.87 1.06 7.31 0.11 0.69 0.21 1.38 0.32 2.09 0.46 3.3 0.69 5.4-0.38 8.6 3.03 0.86 5.84 1.18 8.98 1.32 0.94 0.04 1.87 0.08 2.84 0.12 0.96 0.04 1.93 0.08 2.93 0.12 0.98 0.05 1.97 0.09 2.98 0.13 2.42 0.11 4.85 0.21 7.27 0.31 0.14 0.61 0.29 1.21 0.43 1.84 0.55 2.27 0.55 2.27 1.66 4.76 1.26 4.69 0.88 8.96 0.53 13.8-0.08 1.39-0.08 1.39-0.17 2.8-0.14 2.28-0.29 4.55-0.45 6.82h-2v3c-7.59 0.33-15.2 0.66-23 1-3-7-3-7-2.44-10.2 0.15-0.93 0.29-1.85 0.44-2.81-1.81-2.4-1.81-2.4-4-4l2-6-2-1 1-1c0.48-5.54 0.48-5.54-1.5-10.5l-1.5-1.5c0.31-0.58 0.62-1.15 0.94-1.75 1.69-3.58 2.22-7.08 2.62-11 0.09-0.8 0.17-1.6 0.26-2.42 0.06-0.61 0.12-1.21 0.18-1.83z" fill="#158DB9"/>
<path transform="translate(910 357)" d="m0 0c7.19-0.06 14.2 0.33 21.4 1.05 0.99 0.1 1.98 0.19 3 0.29 2.4 0.23 4.8 0.47 7.19 0.71v3h3c1.35 1.65 2.69 3.32 4 5 0.99 0.33 1.98 0.66 3 1v3h3v2h2c0.22 1.1 0.22 1.1 0.44 2.23 0.33 1.66 0.69 3.31 1.08 4.96 1.63 7.22 1.88 14.3 2.04 21.7 0.06 2.39 0.13 4.78 0.19 7.18 0.03 1.04 0.05 2.09 0.08 3.17 0.15 2.43 0.55 4.44 1.17 6.77 0.14 1.38 0.24 2.76 0.32 4.14 0.04 0.79 0.08 1.59 0.12 2.41 0.04 0.85 0.08 1.7 0.12 2.58 0.04 0.89 0.09 1.79 0.13 2.71 0.75 17.4 0.07 34.8-0.69 52.2h-3l-1-5h2c0.05-4.21 0.09-8.43 0.11-12.6 0.01-1.43 0.02-2.87 0.04-4.3 0.03-2.07 0.04-4.13 0.05-6.19 0.01-1.24 0.02-2.48 0.03-3.76 0.01-3.27 0.01-3.27-2.23-6.1-0.28-2.75-0.47-5.43-0.56-8.18-0.06-1.48-0.13-2.95-0.19-4.42-0.03-0.65-0.05-1.3-0.08-1.98-0.14-2.04-0.4-4.07-0.68-6.1-0.59-4.62-0.62-9.19-0.59-13.8 0-0.87 0.01-1.75 0.01-2.65 0-2.78 0.01-5.55 0.03-8.32 0-1.89 0.01-3.78 0.01-5.67 0.01-4.61 0.03-9.22 0.05-13.8h-2c-0.58-0.59-1.15-1.19-1.75-1.81-2.59-2.52-4.98-3.64-8.25-5.19-3.02-1.64-6.01-3.31-9-5v-2c-0.56 0.09-1.11 0.17-1.69 0.26-5.37 0.71-9.96 0.62-15.3-0.26v1c-0.56-0.08-1.12-0.16-1.7-0.25-5.3-0.68-10.2-0.65-15.5-0.12-5.62 0.48-9.02 0.38-13.8-2.63l-1-2v3l-5 1 1-3c-1.85-0.69-1.85-0.69-4-1l-3 2c-3.06 0.32-3.06 0.32-6 0l-2-3c8.24-3.12 16.1-3.53 24.8-3.68 1.28-0.04 2.56-0.07 3.87-0.11 4.92-0.12 9.83-0.18 14.8-0.26z" fill="#51B1C0"/>
<path transform="translate(807 316)" d="m0 0c1.21 0.03 1.21 0.03 2.44 0.06v2c1.98 0.33 3.96 0.66 6 1v3h3l-1 3c-0.07 2.74-0.1 5.45-0.06 8.19 0 0.75 0 1.5 0.01 2.27 0.01 1.85 0.03 3.7 0.05 5.54-7.76 0.1-15.5 0.17-23.3 0.21-3.61 0.02-7.21 0.05-10.8 0.09-3.47 0.05-6.95 0.07-10.4 0.08-1.97 0.01-3.94 0.04-5.91 0.08h-3.64c-1.59 0.01-1.59 0.01-3.2 0.02-3.42-0.59-4.59-1.85-6.76-4.48 2.96-1.67 5.37-2.32 8.75-2.62 0.8-0.08 1.6-0.15 2.42-0.23 0.6-0.05 1.21-0.1 1.83-0.15l1-4c0.99 0.33 1.98 0.66 3 1 2.34-0.28 4.67-0.6 7-1v-5c2.64-1.46 3.89-2 7-2v2l2-1c1.87-0.23 3.74-0.41 5.62-0.56 1.01-0.08 2.01-0.17 3.04-0.25 1.16-0.09 1.16-0.09 2.34-0.19v-2c-0.99-0.33-1.98-0.66-3-1 2.04-0.68 4.08-1.34 6.12-2 5.89-2.05 5.89-2.05 6.44-2.06z" fill="#0A9BBA"/>
<path transform="translate(268 356)" d="m0 0c0.66 0 1.32 0.01 2 0.01 2.11 0.02 4.22 0.06 6.33 0.1 1.43 0.01 2.87 0.02 4.3 0.04 3.5 0.03 7.01 0.08 10.5 0.14 0.03 4 0.05 8.01 0.06 12 0 1.36 0.01 2.72 0.02 4.07 0.01 1.97 0.02 3.93 0.02 5.9 0.01 1.17 0.01 2.35 0.02 3.57-0.12 3.55-0.55 6.95-1.12 10.4h-2v3h-9l-1 3h-19c-0.49-1.48-0.49-1.48-1-3 2.31 0.33 4.62 0.66 7 1v-2h3v-2c2.91-1.25 4.8-2 8-2l1-2c3.07-0.62 3.07-0.62 6-1 0.5-1.48 0.5-1.48 1-3h2c-0.25-1.48-0.52-2.96-0.81-4.43-0.15-0.83-0.3-1.65-0.45-2.5-0.25-0.68-0.49-1.36-0.74-2.07-0.99-0.33-1.98-0.66-3-1l-1-3c-2.12 0.09-4.25 0.2-6.37 0.32-1.18 0.05-2.37 0.11-3.59 0.17-1 0.17-2 0.34-3.04 0.51l-2 3c-3.12 0.69-3.12 0.69-6 1v4h-2c-0.4-0.96-0.4-0.96-0.81-1.93-1.07-2.4-1.07-2.4-4.19-3.07l-1-3c0.72-0.62 0.72-0.62 1.44-1.25 1.74-1.95 1.98-3.25 2.56-5.75l2-1c0.15-0.78 0.29-1.56 0.44-2.37 1.3-6.04 4.78-5.99 10.4-5.92z" fill="#127DCA"/>
<path transform="translate(1103,439)" d="m0 0h3c0.02 5.1 0.04 10.2 0.05 15.3 0.01 1.74 0.02 3.47 0.03 5.2 0.01 2.51 0.01 5.01 0.02 7.52 0 0.76 0.01 1.52 0.01 2.31 0 5.29-0.45 10.4-1.11 15.7-3.63 0.2-5.87-0.14-9-2v2c-6.68 0.7-13.3 1.26-20 1-1.23-0.04-1.23-0.04-2.49-0.09-0.81-0.05-1.61-0.1-2.45-0.16-0.73-0.05-1.46-0.09-2.21-0.14-1.85-0.61-1.85-0.61-3.04-2.41-1.75-4.76-2.1-9.4-2.37-14.4-0.05-0.75-0.09-1.49-0.13-2.26-0.11-1.83-0.21-3.66-0.31-5.49h2c0.12-0.74 0.25-1.49 0.38-2.25 0.57-2.55 1.36-4.48 2.62-6.75 2 1 2 1 3.06 3.75 0.79 2.75 1.44 5.44 1.94 8.25 3.82 1.37 7.07 0.68 11 0l1 6c-0.99 0.33-1.98 0.66-3 1 1.48 0.5 1.48 0.5 3 1l1 3h7v-2c0.97-0.12 1.94-0.25 2.94-0.38 1.01-0.2 2.02-0.41 3.06-0.62 0.49-0.99 0.49-0.99 1-2v2h2c-0.01-0.71-0.02-1.41-0.04-2.14-0.09-10.3 0.47-20.6 1.04-30.9z" fill="#00B9A6"/>
<path transform="translate(465,374)" d="m0 0c4.88 1.75 4.88 1.75 6 4 0.87-0.28 0.87-0.28 1.75-0.56 3.96-0.77 6.79 0.7 10.2 2.56v2h-2c0.5 1.49 0.5 1.49 1 3-0.44 2.19-0.44 2.19-1 4 0.99 0.33 1.98 0.66 3 1v14l-2-2c-0.01 0.55-0.03 1.11-0.04 1.68-0.08 2.52-0.18 5.05-0.27 7.57-0.03 0.87-0.05 1.75-0.07 2.64-0.34 7.98-0.34 7.98-3.62 11.1-2.74-4.77-3.5-8.66-4-14-0.32-2-0.65-4-1-6l-4 1-2-3c-0.76 0.21-1.53 0.41-2.31 0.62-2.69 0.38-2.69 0.38-5.69-1.62 0.99-0.33 1.98-0.66 3-1l-2-1c0-2 0-2 2-4l-2-2c-0.69-2.06-0.69-2.06-1-4l1-1c1.11 0.02 2.23 0.04 3.38 0.06 3.72 0.26 3.72 0.26 6.62-2.06-0.99-0.33-1.98-0.66-3-1l-2 2c-2.94 0.12-2.94 0.12-6 0h-3c-1.34-0.31-2.68-0.63-4-1-0.1-0.64-0.21-1.28-0.31-1.94-0.23-0.68-0.46-1.36-0.69-2.06-0.99-0.33-1.98-0.66-3-1v-2l3-2-1-2c3.46-0.5 3.46-0.5 7-1l1 2-4 4 1 2c1.09-0.21 2.19-0.41 3.31-0.62 3.69-0.38 3.69-0.38 6.69 1.62-0.33-0.58-0.66-1.15-1-1.75-1-2.25-1-2.25-1-6.25h2v-2z" fill="#007DD1"/>
<path transform="translate(583,450)" d="m0 0c2.48 0.99 2.48 0.99 5 2v2l15 1v2h3v3c0.99 0.33 1.98 0.66 3 1-0.24 0.86-0.24 0.86-0.49 1.74-0.5 2.22-0.62 4.11-0.61 6.37 0.01 0.75 0.01 1.51 0.01 2.28 0.01 0.78 0.02 1.56 0.03 2.36 0 0.79 0.01 1.59 0.01 2.4 0.01 1.95 0.03 3.9 0.05 5.85-2.35 1.18-3.74 1.12-6.36 1.11h-2.73c-0.97 0-1.95-0.01-2.95-0.01s-1.99-0.01-3.02-0.01c-3.19 0-6.38-0.01-9.56-0.03-2.16 0-4.32-0.01-6.48-0.01-5.3-0.01-10.6-0.03-15.9-0.05-0.5-1.49-0.5-1.49-1-3h-5v-3h-3l1-4c1.71 0.23 3.42 0.49 5.12 0.75 0.96 0.14 1.91 0.28 2.89 0.42 2.99 0.83 2.99 0.83 5.91 2.95 3.94 2.4 5.78 2.04 10.3 1.26 0.65-0.11 1.3-0.22 1.96-0.33 1.96-0.33 3.9-0.69 5.85-1.05 1.69-0.29 1.69-0.29 3.42-0.59 2.53-0.45 5.06-0.92 7.58-1.41 0.2-3.72 0.15-4.77-2-8 0.5-1.49 0.5-1.49 1-3-0.6-0.01-1.21-0.03-1.83-0.04-6.58-0.4-6.58-0.4-9.67-3.34-1.5-2.62-1.5-2.62-2.5-5.62 0.94-2.69 0.94-2.69 2-5zm23 12 1 2z" fill="#1692BF"/>
<path transform="translate(1324,612)" d="m0 0h6l-1 2h-4l4 2-1 3c-1.33 0.33-2.67 0.67-4 1l-1 3c-2.56 1.19-2.56 1.19-5 2v2c-0.99 0.33-1.98 0.66-3 1l-1 2h-4v2c-0.8 0.47-1.61 0.95-2.44 1.44-2.85 1.36-2.85 1.36-3.56 4.56-1.54 0.31-3.08 0.63-4.62 0.94-0.91 0.18-1.82 0.37-2.76 0.56-2.05 0.39-4.11 0.71-6.18 1-1.21 0.25-1.21 0.25-2.44 0.5l-1 2c-1.88 2.62-1.88 2.62-4 5h-3v2c-2.06 0.48-4.12 0.96-6.19 1.44-1.15 0.26-2.29 0.53-3.48 0.81-1.99 0.45-3.98 0.88-5.99 1.27-5.92 1.21-10.8 2.82-15.5 6.67-2.8 2.27-3.56 2.78-7.31 3.19-1.24-0.19-1.24-0.19-2.5-0.38v-3h6v-3c2.97-0.5 2.97-0.5 6-1v-2h4v-2c2.97-0.5 2.97-0.5 6-1v-2c2.97-0.5 2.97-0.5 6-1v-2c2.97-0.5 2.97-0.5 6-1v-2c1.88-2.61 2.98-2.99 6.19-3.69 0.93-0.1 1.85-0.2 2.81-0.31v-2c1.98-0.33 3.96-0.66 6-1v-3h6v-3h3v-2c0.8-0.29 1.61-0.58 2.44-0.88 2.69-0.85 2.69-0.85 3.56-3.12h6v-3h4v-2c2.47-0.5 2.47-0.5 5-1l1-3h5v-3z" fill="#9A436C"/>
<path transform="translate(993 357)" d="m0 0h2.7c0.93-0 1.87 0 2.84 0.01 0.93-0.01 1.86-0.01 2.82-0.01h2.7 2.49c2.05 0.13 2.05 0.13 4.05 1.13l-1 4c-2.31-0.33-4.62-0.66-7-1v3c-0.77 0.27-1.53 0.54-2.31 0.82-2.57 1.13-3.89 2.1-5.69 4.18l-2-1c0.2 0.79 0.41 1.57 0.62 2.38 0.34 3.31 0.17 5.02-0.57 8.16-1.17 5.54-1.4 10.9-1.47 16.5-0.02 1.05-0.04 2.1-0.06 3.17-0.06 3.41-0.1 6.81-0.15 10.2-0.04 2.36-0.08 4.72-0.11 7.08-0.28 17.2-0.35 34.4-0.23 51.6 0.01 0.85 0.01 1.7 0.02 2.58 0.01 1.58 0.02 3.16 0.04 4.74 0.01 3.13-0.09 5.55-1.09 8.54h-2c-0.96-2.88-1.13-4.68-1.13-7.68 0-0.96 0-1.92-0.01-2.91 0-1.05 0.01-2.11 0.01-3.19 0-1.11-0.01-2.23-0.01-3.37v-11-7.67c0-5.37 0-10.7 0.01-16.1v-18.6c-0.01-5.97-0.01-11.9-0.01-17.9v-7.6c0-3.55 0-7.1 0.01-10.6 0-1.05-0.01-2.09-0.01-3.17 0.05-16.3 0.05-16.3 6.54-16.3z" fill="#02C2AC"/>
<path transform="translate(380,367)" d="m0 0c1.42-0.05 2.83-0.09 4.25-0.12 0.79-0.03 1.58-0.05 2.39-0.08 4.77 0.4 7.15 2.89 10.4 6.2 0.7 0.52 1.4 1.03 2.12 1.56 1.88 1.44 1.88 1.44 3.88 4.44 0.99 0.33 1.98 0.66 3 1 3.22 4.04 3.33 7.25 3.19 12.3-0.04 1.88-0.04 1.88-0.08 3.8-0.04 0.96-0.07 1.91-0.11 2.89h-3c-0.05-0.59-0.1-1.18-0.15-1.79-0.51-6.36-0.51-6.36-2.85-12.2-2.04-0.89-2.04-0.89-4-1-0.06-0.77-0.12-1.53-0.18-2.32-0.57-2.86-0.57-2.86-3.11-4.26-0.91-0.41-1.83-0.81-2.77-1.23-0.92-0.42-1.84-0.84-2.79-1.27-0.71-0.3-1.42-0.61-2.15-0.92v3c-2.64 1.41-5.07 2.37-8 3l1 4 4 1c-2.49 1.25-3.41 0.78-6 0l1 4h2l1-2 4 4c-3.38 2.22-6.06 3.23-10 4l-1 2c0.99 0.33 1.98 0.66 3 1l-2 4h-2l-1 2v-3h2v-2h-4l-2 3c-1-1-1-1-1.1-3.07 0.02-1.23 0.02-1.23 0.04-2.49 0.01-0.83 0.02-1.66 0.02-2.51 0.02-0.63 0.03-1.27 0.04-1.93l-2-1c0.33-2 0.67-4 1-6 0.12-0.95 0.25-1.9 0.38-2.88 0.95-4.78 2.12-9.62 5.62-13.1 3.12-0.12 3.12-0.12 6 0v-2z" fill="#0284D6"/>
<path transform="translate(921,403)" d="m0 0v8c-1.64 0.19-1.64 0.19-3.31 0.38-3.76 0.37-3.76 0.37-6.69 2.62-2.32 0.39-4.66 0.73-7 1l2 6h4v2c0.76 0.23 1.53 0.45 2.31 0.69 3.24 1.58 4.11 3.14 5.69 6.31-1 1-1 1-2.84 1.1-0.79-0.01-1.57-0.03-2.38-0.04-0.85-0.01-1.7-0.01-2.57-0.02-1.81-0.03-3.61-0.05-5.42-0.08-0.85-0.01-1.7-0.01-2.57-0.02-0.79-0.01-1.57-0.03-2.38-0.04-1.86-0.1-1.86-0.1-2.84 1.1-0.99-0.33-1.98-0.66-3-1-0.69-2.06-0.69-2.06-1-4 2-1 2-1 6-1l-2-2h-3l-1-3h-2v-2l-2-2 1-1c-6.03-1.07-11.9-1.1-18-1v-3c3.42-1.14 6.09-1.1 9.69-1.06 1.77 0.01 1.77 0.01 3.57 0.02 0.91 0.02 1.81 0.03 2.74 0.04v-4h30v-3c2-1 2-1 3-1z" fill="#55B8C7"/>
<path transform="translate(860,362)" d="m0 0c4.43 0.52 7.3 1.53 11 4 0.91 0.47 1.82 0.95 2.75 1.44 2.25 1.56 2.25 1.56 3 3.5 0.12 1.02 0.12 1.02 0.25 2.06 0.4 2.67 0.68 3.7 2.69 5.56 2.39 1.54 2.39 1.54 5.37 2.94 2.94 1.5 2.94 1.5 5.94 4.5h-18v2c-3.29 1.1-5.74 1.1-9.19 1.06-1.63-0.01-1.63-0.01-3.29-0.02-0.83-0.02-1.66-0.03-2.52-0.04v-3h-3c-1.3-2.61-1.13-4.59-1.12-7.5-0.01-0.98-0.01-1.96-0.01-2.97 0.13-2.53 0.13-2.53 1.13-4.53h2l1-7h2v-2z" fill="#55B6C4"/>
<path transform="translate(701,461)" d="m0 0c5.75 1.88 5.75 1.88 8 3v2c0.6 0.12 1.2 0.25 1.81 0.38 2.19 0.62 2.19 0.62 5.19 2.62 1.33 0.68 2.66 1.35 4 2-0.99 0.33-1.98 0.66-3 1 1.02 0.15 1.02 0.15 2.06 0.31 4.76 1.12 8.89 2.99 12.9 5.69 1.34-0.29 2.68-0.63 4-1 0.99 0.33 1.98 0.66 3 1 7.2 1.1 13.5 1.06 20.6-0.62 2.53-0.4 3.95-0.02 6.38 0.62 2.35-0.59 4.69-1.25 7-2 0.5 2.97 0.5 2.97 1 6-2.3 1.15-3.58 1.12-6.13 1.1-0.81-0.01-1.61-0.01-2.44-0.01-0.85-0.01-1.69-0.02-2.55-0.03-0.85 0-1.7-0.01-2.58-0.01-2.1-0.01-4.2-0.03-6.3-0.05v2h-21v-2h-14l-1-3c-1.18 0.09-1.18 0.09-2.38 0.19-0.86-0.06-1.73-0.13-2.62-0.19l-2-3h-2v-3h-3v-3h-3v-4c-0.99-0.33-1.98-0.66-3-1l-1-3 2-2z" fill="#0EA7BD"/>
<path transform="translate(560 319)" d="m0 0c0.93 0.01 1.86 0.01 2.81 0.02 0.97 0.02 1.94 0.04 2.94 0.06 1.45 0.01 1.45 0.01 2.94 0.01 7.18 0.08 7.18 0.08 9.49 1.24l-1 5h-3l1 9c-7.91 2.76-15.7 4.72-24 6l-1 3h-2v-4h-2v-2h2c0.05-0.78 0.1-1.57 0.15-2.37 0.08-1.01 0.15-2.03 0.23-3.07 0.07-1.01 0.14-2.02 0.21-3.06 0.14-0.82 0.27-1.65 0.41-2.5l2-1 1-3c2.34-3.09 4.02-3.37 7.82-3.33z" fill="#1789D5"/>
<path transform="translate(204,360)" d="m0 0c1.98 0.66 3.96 1.32 6 2v3c0.64 0.1 1.28 0.21 1.94 0.31 0.68 0.23 1.36 0.46 2.06 0.69l1 3 2 2c-0.99 0.5-0.99 0.5-2 1v5c-3.88-0.88-3.88-0.88-5-2v4h2c0.69 2.19 0.69 2.19 1 5-0.52 0.78-1.03 1.57-1.56 2.38-1.82 2.61-1.82 2.61-0.69 5.81 0.21 0.58 0.42 1.17 0.63 1.77 1.18 3.87 1.52 8 1.62 12l-1 1v3.19c0 3.42-0.35 6.46-1 9.81l-4-2-2 4-1-6h-1c-0.03-2.44-0.05-4.87-0.06-7.31-0.01-0.69-0.02-1.38-0.03-2.09-0.01-3.15 0.09-5.59 1.09-8.6l1-1c-0.33-0.5-0.66-0.99-1-1.5-1.98-4.94-1.27-10.4 0-15.5h2c-0.16-1.26-0.33-2.52-0.5-3.81-0.32-2.45-0.5-4.71-0.5-7.19l-1-1c-1.19-5.61-1.19-5.61 0-8z" fill="#0376D0"/>
<path transform="translate(1128,645)" d="m0 0c0.99 0.33 1.98 0.66 3 1v2c0.76 0.29 1.53 0.58 2.31 0.88 2.69 1.12 2.69 1.12 5.69 3.12v2h3c0.62 0.8 1.24 1.61 1.88 2.44 2.44 2.94 3.47 3.07 7.12 3.56l1 2c0.83 0.16 1.65 0.33 2.5 0.5 0.83 0.16 1.65 0.33 2.5 0.5l1 2c3.03 0.66 3.03 0.66 6 1v3h6v2l15 1v2h21v-2l12-1v-2c0.97-0.12 1.94-0.25 2.94-0.38 1.51-0.3 1.51-0.3 3.06-0.62l1-2c2.65-0.59 5.29-0.74 8-1v-2h6v3c-0.8 0.25-1.61 0.5-2.44 0.75-2.77 0.97-5.34 2.03-8 3.25-3.79 1.72-7.53 2.94-11.6 4-1.03 0.35-2.06 0.7-3.12 1.06-2.63 0.86-5.18 1.41-7.88 1.94-0.99 0.5-0.99 0.5-2 1-10.4 0.61-19.9-0.08-30-3-0.89-0.23-1.79-0.46-2.71-0.69-5.25-1.41-9.71-3.43-14.4-6.22-2.02-1.23-2.02-1.23-4.91-2.09v-2c-0.87-0.06-1.73-0.12-2.62-0.19-4.9-1.18-7.98-3.9-10.9-7.93-1.39-2.05-1.39-2.05-3.88-3.32-2.94-1.79-4.57-3.77-6.56-6.56v-1z" fill="#000102"/>
<path transform="translate(861,417)" d="m0 0c1.21 4.67 1.09 9.21 1 14l-1-4h-2v3c-0.99 0.5-0.99 0.5-2 1-0.56 1.73-0.56 1.73-1 4-0.66 2.33-1.33 4.67-2 7l-2-2 1 6h-2c0.14 1.48 0.29 2.96 0.44 4.44 0.08 0.82 0.16 1.64 0.24 2.49 0.11 2.06 0.11 2.06 1.32 3.07-0.06 0.89-0.12 1.77-0.19 2.69 0.24 4.17 1.77 5.96 4.19 9.31 1.1 2.43 1.92 4.65 2.5 7.25 0.16 0.58 0.33 1.15 0.5 1.75l2 1c-3.47 0.5-3.47 0.5-7 1-0.12-0.8-0.25-1.61-0.38-2.44-0.2-0.84-0.41-1.69-0.62-2.56l-2-1c-0.73-2.31-1.4-4.65-2-7h-1c-0.85-6.62-1.15-13.1-1.12-19.8-0.01-0.92-0.01-1.84-0.02-2.79 0-0.89 0.01-1.78 0.01-2.69v-2.42c0.14-2.53 0.58-4.88 1.13-7.35h2c0.1-0.89 0.21-1.77 0.31-2.69 1.11-5.33 3.7-11.3 9.69-11.3z" fill="#51B8C6"/>
<path transform="translate(1073,233)" d="m0 0c1.94 0.62 1.94 0.62 4 2 0.75 3.12 0.75 3.12 1 6h-2c0.01 0.77 0.03 1.54 0.04 2.34 0.14 7.27 0.28 14.5 0.4 21.8 0.07 3.74 0.14 7.47 0.21 11.2 0.07 3.6 0.13 7.21 0.19 10.8 0.03 1.38 0.05 2.76 0.08 4.14 0.04 1.92 0.07 3.85 0.1 5.77 0.02 1.1 0.04 2.2 0.06 3.33-0.08 2.59-0.08 2.59-1.08 4.59h-2c-0.23-1.95-0.46-3.91-0.68-5.86-0.26-2.1-0.26-2.1-0.83-3.91-0.6-2.74-0.62-5.28-0.62-8.08 0-1.18-0.01-2.36-0.01-3.57 0-1.27 0.01-2.54 0.01-3.84s0-2.6-0.01-3.95c0-2.75 0-5.49 0.01-8.24 0.01-3.54 0-7.07 0-10.6-0.01-3.36-0.01-6.72 0-10.1 0-1.27-0.01-2.54-0.01-3.85 0-1.17 0.01-2.34 0.01-3.54v-3.14c0.13-2.33 0.13-2.33 1.13-3.33z" fill="#0D67D8"/>
<path transform="translate(106,304)" d="m0 0c6.76-0.1 13.5-0.17 20.3-0.22 2.3-0.02 4.6-0.05 6.9-0.08 3.31-0.05 6.61-0.07 9.92-0.09 1.03-0.02 2.06-0.04 3.12-0.06 7.2-0.01 7.2-0.01 10.3 2.47 0.71 0.98 0.71 0.98 1.44 1.98h2c0.5 1.49 0.5 1.49 1 3-5.47 0.13-5.47 0.13-8.07-0.5-4.35-0.74-8.64-0.62-13-0.6-1.46 0-1.46 0-2.94 0.01-3.09 0-6.18 0.01-9.26 0.03-2.1 0-4.2 0.01-6.29 0.01-5.14 0.01-10.3 0.03-15.4 0.05-1.12-3.75-1.12-3.75 0-6z" fill="#58B8C7"/>
<path transform="translate(441,362)" d="m0 0c-0.45 3.49-1.55 6.24-3.06 9.38-1.84 4.02-2.58 7.14-1.94 11.6l3 2c0.69 2.12 0.69 2.12 1 4h-6l-1-3h-3v-3h-2c-2.49-4.98-1.31-11.8 0.06-17 1.34-3.61 1.69-3.88 5.38-5.69 3.46-0.3 4.79-0.3 7.56 1.69z" fill="#1188C5"/>
<path transform="translate(289,374)" d="m0 0 2 1c0.1 5.79-0.01 11.3-1 17h-2v3h-9l-1 3h-19l-1-3c2.31 0.33 4.62 0.66 7 1v-2h3v-2c2.91-1.26 4.8-2 8-2l1-2c3.06-0.62 3.06-0.62 6-1l1-3h2c0.99-3.3 1.98-6.6 3-10z" fill="#1387DC"/>
<path transform="translate(1064,353)" d="m0 0h12v2c2.97 0.33 5.94 0.66 9 1-1 4-1 4-2 7h2l-1 2c-7.68-0.63-7.68-0.63-9.33-2.52-2.24-1.98-3.5-1.8-6.45-1.7-1.39 0.03-1.39 0.03-2.8 0.05-0.96 0.04-1.93 0.07-2.92 0.11-1.91 0.06-3.81 0.11-5.72 0.15-0.84 0.03-1.69 0.06-2.56 0.09-2.22-0.18-2.22-0.18-5.22-2.18v-3l15-1v-2z" fill="#448F9B"/>
<path transform="translate(687,362)" d="m0 0h3c1.07 3.46 1.1 6.64 1.06 10.2-0.01 1.08-0.02 2.16-0.02 3.27-0.02 0.82-0.03 1.64-0.04 2.48h-2c0.14 3.44 0.29 6.88 0.44 10.3 0.04 0.98 0.08 1.96 0.12 2.96 0.04 0.94 0.08 1.88 0.12 2.84 0.04 0.87 0.08 1.73 0.11 2.62 0.14 2.43 0.14 2.43 1.21 5.27 0.09 1.94 0.13 3.89 0.13 5.84 0 1.15 0.01 2.29 0.01 3.47-0.01 1.2-0.01 2.39-0.02 3.63 0.01 1.19 0.01 2.38 0.02 3.61 0 1.15-0.01 2.3-0.01 3.48v3.18c-0.11 2.43-0.43 4.47-1.13 6.79h-2c-1.1-3.54-1.12-6.82-1.11-10.5v-1.96c0-2.12 0-4.24 0.01-6.36 0-1.47 0.01-2.95 0.01-4.42 0-3.87 0.01-7.75 0.02-11.6 0.01-3.95 0.02-7.91 0.02-11.9 0.01-7.76 0.03-15.5 0.05-23.3z" fill="#0AA5BC"/>
<path transform="translate(606,359)" d="m0 0c3.46 3.46 2.88 8.29 3 13-0.2 4.68-0.56 9.34-1 14h-2v3h-10c1.25-3.44 1.25-3.44 3-7 2.19-0.94 2.19-0.94 4-1-0.16-0.56-0.33-1.11-0.5-1.69-0.54-2.5-0.57-4.76-0.5-7.31h2l1-2h-5c0.02-1.07 0.04-2.14 0.06-3.25-0.05-2.9-0.19-5.04-1.06-7.75 3.15-1.05 3.99-1.07 7 0z" fill="#0B9CBA"/>
<path transform="translate(169 451)" d="m0 0c0.84 0.01 1.67 0.03 2.53 0.04 2.05 0.04 4.11 0.09 6.16 0.15 3.79 5.6 4.56 9.49 4.31 16.2-0.01 1.19-0.01 1.19-0.03 2.4-0.07 3.64-0.3 6.88-1.28 10.4h-2l1-5-2-1c-0.03-2.63-0.05-5.25-0.07-7.88 0-0.74-0.01-1.49-0.02-2.26-0.03-5.64-0.03-5.64 1.09-7.86-2.96-0.03-5.92-0.05-8.88-0.07-0.84 0-1.68-0.01-2.55-0.02-0.8 0-1.61-0.01-2.44-0.01-0.74-0.01-1.49-0.01-2.25-0.02-1.97 0-1.97 0-3.88 1.12l-1-1v1l-5 1v2c-0.77-0.19-1.53-0.37-2.31-0.57-2.78-0.66-2.78-0.66-5.69 0.57-0.99-1.32-1.98-2.64-3-4 1-1 1-1 2.96-1.14 0.8 0.01 1.59 0.01 2.41 0.01 0.79 0 1.59 0 2.4-0.01 2.23 0.14 2.23 0.14 5.23 1.14v-2c4.44-3.74 8.82-3.36 14.3-3.19z" fill="#1085DB"/>
<path transform="translate(988,380)" d="m0 0h1c0.28 13 0.56 26 0.83 39 0.13 6.03 0.26 12.1 0.39 18.1 0.13 5.82 0.25 11.6 0.37 17.4l0.15 6.66c0.07 3.11 0.13 6.21 0.19 9.32 0.03 1.39 0.03 1.39 0.07 2.8 0.01 0.85 0.03 1.69 0.04 2.56 0.02 0.74 0.04 1.47 0.05 2.23-0.09 1.93-0.09 1.93-1.09 4.93h-2c-1.28-3.84-1.14-7.46-1.13-11.5 0-0.87-0.01-1.74-0.01-2.64 0-2.9 0.01-5.81 0.02-8.71v-3.02c0.02-25.7 0.56-51.4 1.12-77.2z" fill="#59B9C8"/>
<path transform="translate(489,356)" d="m0 0 12 1v2h-2v2l2 1c0.37 1.99 0.71 3.99 1 6l1 1v3l-2 1 4 4-1 3 2 1-4 2c0.95 2.16 0.95 2.16 3 4h-7l-1-3-2-1c0.35-0.5 0.7-0.99 1.06-1.5 1.35-3.59 0.88-6.82-0.06-10.5l-2-3v-3h2v-3c-0.6-0.1-1.2-0.21-1.81-0.31-2.5-0.79-3.57-1.66-5.19-3.69v-2z" fill="#148ABF"/>
<path transform="translate(729,364)" d="m0 0h1v31h-2c0.14 2.88 0.29 5.75 0.44 8.62 0.04 0.81 0.08 1.62 0.12 2.45 0.18 3.43 0.41 6.75 0.98 10.1 0.66 3.98 0.43 7.86 0.3 11.9 0.17 3.04 0.88 5.15 2.16 7.9-0.99-0.33-1.98-0.66-3-1v-2h-2c-1.14-4.22-0.8-7.53-0.06-11.8 0.29-1.74 0.29-1.74 0.59-3.52 0.23-1.32 0.23-1.32 0.47-2.67h-2v7h-1c-0.03-2.4-0.05-4.79-0.06-7.19-0.01-0.67-0.02-1.34-0.03-2.04-0.01-2.94 0.07-5.68 0.66-8.57 0.61-3.1-0.57-5.25-1.57-8.2 0.38-2.38 0.38-2.38 1-4l1 1c0.02-0.67 0.04-1.33 0.06-2.02 0.1-3.03 0.21-6.07 0.32-9.1 0.03-1.05 0.06-2.1 0.09-3.18 0.2-5.23 0.45-9.81 2.53-14.7z" fill="#58B8C7"/>
<path transform="translate(752 304)" d="m0 0h3.65c1.27-0 2.55 0 3.85 0.01 1.27-0.01 2.54-0.01 3.84-0.01h3.66 3.38c2.69 0.13 2.69 0.13 4.69 1.13v3h15v2l2 1c-0.97-0.07-1.93-0.14-2.92-0.22-14.7-1-29.4-0.88-44.1-0.78-0.05-1.66-0.04-3.33 0-5 1.79-1.8 4.51-1.13 6.93-1.13z" fill="#4495A4"/>
<path transform="translate(1533,321)" d="m0 0c0.99 0.33 1.98 0.66 3 1v5h2c0.05 0.9 0.1 1.81 0.15 2.74 0.07 1.18 0.15 2.36 0.23 3.57 0.06 1.17 0.13 2.35 0.21 3.55 0.2 3.3 0.2 3.3 2.41 6.14l-5 1v-3h-2l-1-2c-1.64-0.72-3.31-1.39-5-2v-2c-0.99-0.33-1.98-0.66-3-1l-1-5c0.99-0.33 1.98-0.66 3-1l1-2c1.65-1.69 3.31-3.36 5-5z" fill="#1366D5"/>
<path transform="translate(204,360)" d="m0 0c1.98 0.66 3.96 1.32 6 2v3c0.64 0.1 1.28 0.21 1.94 0.31 0.68 0.23 1.36 0.46 2.06 0.69l1 3 2 2c-0.99 0.5-0.99 0.5-2 1v5c-3.88-0.88-3.88-0.88-5-2v4h2c0.69 2.25 0.69 2.25 1 5-1.31 2.31-1.31 2.31-3 4h-2c-2-6.27-3-12.4-3-19l-1-1c-1.19-5.61-1.19-5.61 0-8z" fill="#0278D3"/>
<path transform="translate(215 355)" d="m0 0c1.68 0.07 1.68 0.07 3.39 0.15 1.75 0.08 1.75 0.08 3.54 0.17 1.76 0.07 1.76 0.07 3.57 0.15 2.91 0.13 5.83 0.27 8.74 0.41v2l8 1-1 7c-6.49-0.51-6.49-0.51-9.11-3.04-4.24-2.88-7.96-2.36-13-2.15-1.79 0.05-3.57 0.1-5.35 0.15-0.79 0.03-1.57 0.06-2.38 0.09-2.22-0.05-4.08-0.43-6.21-1.05 0.31-1.94 0.31-1.94 1-4 3.25-1.08 5.36-1.04 8.76-0.88z" fill="#448D99"/>
<path transform="translate(993 357)" d="m0 0h2.7c0.93-0 1.87 0 2.84 0.01 0.93-0.01 1.86-0.01 2.82-0.01h2.7 2.49c2.05 0.13 2.05 0.13 4.05 1.13l-1 4c-2.31-0.33-4.62-0.66-7-1v3c-0.77 0.27-1.53 0.54-2.31 0.82-2.57 1.13-3.89 2.1-5.69 4.18l-2-1c-0.99 2.31-1.98 4.62-3 7-0.31-0.64-0.62-1.28-0.94-1.93-0.9-2-0.9-2-2.06-3.07 0.06-2 0.2-4 0.37-6 0.09-1.09 0.18-2.18 0.28-3.31 0.56-4.3 1.77-3.81 5.75-3.82z" fill="#54B8C6"/>
<path transform="translate(775,307)" d="m0 0h22v3h9l1 2c2.53 0.66 2.53 0.66 5 1v5l2 1h-6c-0.5-0.99-0.5-0.99-1-2-2.17 0.51-4 1-6 2v-2c-0.64-0.06-1.28-0.12-1.93-0.18-0.83-0.09-1.66-0.17-2.51-0.26-0.82-0.08-1.64-0.16-2.49-0.24-2.07-0.32-2.07-0.32-3.07-1.32v1c-5.75 0.12-5.75 0.12-8-1h-3v-2l16-2v-2l-21-1v-1z" fill="#05536F"/>
<path transform="translate(772,476)" d="m0 0c2 3.75 2 3.75 2 6-2.3 1.15-3.58 1.12-6.13 1.1-0.81-0.01-1.61-0.01-2.44-0.01-0.85-0.01-1.69-0.02-2.55-0.03-1.28 0-1.28 0-2.58-0.01-2.1-0.01-4.2-0.03-6.3-0.05v2h-15v-3l5-1v-2c1.39 0.06 1.39 0.06 2.81 0.12 4.34 0.03 8.42-0.87 12.6-1.78 2.59-0.35 4.07 0 6.55 0.66 3.2-0.87 3.2-0.87 6-2z" fill="#0AA7BC"/>
<path transform="translate(1252,455)" d="m0 0h6v2c17.8 0.33 35.6 0.66 54 1v3h3l-1 3-3-2c-3-0.23-5.91-0.35-8.91-0.38-0.88-0.02-1.76-0.03-2.67-0.05-2.83-0.05-5.66-0.09-8.48-0.13-2.8-0.05-5.61-0.09-8.41-0.15-1.74-0.03-3.48-0.05-5.22-0.08-8.99-0.15-17-0.66-25.3-4.21v-2z" fill="#000102"/>
<path transform="translate(1103,439)" d="m0 0h3c0.02 5.1 0.04 10.2 0.05 15.3 0.01 1.74 0.02 3.47 0.03 5.2 0.01 2.51 0.01 5.01 0.02 7.52 0 0.76 0.01 1.52 0.01 2.31 0 5.29-0.45 10.4-1.11 15.7-2.25 0.25-2.25 0.25-5 0-2.31-2-2.31-2-4-4 2-3 2-3 5-4 1.48-2.96 1.05-5.58 1-8.88-0.1-9.73 0.44-19.4 1-29.1z" fill="#1CBEB4"/>
<path transform="translate(78,318)" d="m0 0 5 1v2l-3 2c0.06 1.33 0.06 1.33 0.12 2.69-0.15 4.07-1.44 5.61-3.93 8.7-1.4 1.72-1.4 1.72-2.19 4.61-0.99-0.33-1.98-0.66-3-1l-2 6c-0.99-0.33-1.98-0.66-3-1 0.11-1.48 0.24-2.96 0.38-4.44 0.06-0.82 0.13-1.64 0.21-2.49 0.2-1.03 0.2-1.03 0.41-2.07l2-1c0.66-2.53 0.66-2.53 1-5h3v-5h3v-3h2v-2z" fill="#117FD3"/>
<path transform="translate(300,426)" d="m0 0 2 1v13l-2-2c-0.09 4.58-0.14 9.17-0.19 13.8-0.02 1.3-0.05 2.6-0.07 3.95-0.01 1.25-0.02 2.5-0.03 3.78-0.02 1.16-0.03 2.31-0.05 3.5 0.38 3.33 1.22 4.51 3.34 7.02-0.31 2.25-0.31 2.25-1 4l-2-1c-0.62-2.56-0.62-2.56-1-5h-2c-1.17-3.5-1.13-6.27-1.13-9.97 0-0.68 0-1.35-0.01-2.05 0-1.43 0.01-2.86 0.01-4.29 0-2.18 0-4.37-0.01-6.55 0-1.39 0.01-2.78 0.01-4.17v-3.83c0.13-3.14 0.13-3.14 1.13-6.14l2-1c0.65-2.02 0.65-2.02 1-4z" fill="#52B1C2"/>
<path transform="translate(1176,396)" d="m0 0-2 2c0.64 0.89 1.28 1.77 1.94 2.69 2.74 4.41 3.06 7.17 3.06 12.3-1 2.25-1 2.25-2 4h-6l2-1-2-3 1-3-1-1-1-2v5h-1v-7l-2-1 2-7-2-1c3.07-1.53 5.7-0.55 9 0z" fill="#00ACA7"/>
<path transform="translate(861,417)" d="m0 0c1.21 4.67 1.09 9.21 1 14l-1-4h-2v3c-0.99 0.5-0.99 0.5-2 1-0.56 1.73-0.56 1.73-1 4-0.66 2.33-1.33 4.67-2 7-0.64-0.8-1.28-1.61-1.94-2.44-1.47-1.84-1.47-1.84-3.06-3.56-0.04-1.67-0.04-3.33 0-5h2c0.1-0.89 0.21-1.77 0.31-2.69 1.11-5.33 3.7-11.3 9.69-11.3z" fill="#4EAAB7"/>
<path transform="translate(1103,267)" d="m0 0h2c0.95 12.2 1.12 24.3 1.06 36.5 0 1.81-0.01 3.61-0.01 5.42-0.01 4.36-0.03 8.72-0.05 13.1h-2c-1.26-2.53-1.12-4.26-1.11-7.09v-3.22c0-1.15 0.01-2.3 0.01-3.48 0-1.17 0.01-2.35 0.01-3.56 0-3.76 0.01-7.52 0.03-11.3 0-2.55 0.01-5.09 0.01-7.64 0.01-6.25 0.03-12.5 0.05-18.7z" fill="#0F65D9"/>
<path transform="translate(1288,633)" d="m0 0h6c-2.22 2.42-4.43 3.95-7.31 5.5-0.79 0.43-1.59 0.85-2.4 1.29-7.98 4.21-7.98 4.21-10.3 4.21l-1 3c-2.57 1.45-5.08 2.75-7.75 4-5.91 2.83-11.5 5.58-16.7 9.69-3.24 2.37-5.49 2.81-9.56 2.31v-3h6v-3c1.98-0.33 3.96-0.66 6-1v-2h4v-2c1.98-0.33 3.96-0.66 6-1v-2c1.98-0.33 3.96-0.66 6-1v-2c1.98-0.33 3.96-0.66 6-1v-2c1.88-2.61 2.98-2.99 6.19-3.69 1.39-0.15 1.39-0.15 2.81-0.31v-2c1.98-0.33 3.96-0.66 6-1v-3z" fill="#000102"/>
<path transform="translate(1140,355)" d="m0 0c15.8-0.28 15.8-0.28 23 1l1 2c3.03 0.66 3.03 0.66 6 1l1 3h2l2 7h-4l-1-2c-2.49-0.85-5.01-1.47-7.55-2.12-2.6-0.93-3.6-1.9-5.45-3.88-2-0.68-4-1.35-6-2l-1-2c-2.36-0.47-2.36-0.47-5.06-0.62-0.92-0.08-1.84-0.15-2.79-0.23-1.06-0.08-1.06-0.08-2.15-0.15v-1z" fill="#08A597"/>
<path transform="translate(411,428)" d="m0 0h1v54h-3c-0.02-5.82-0.04-11.6-0.05-17.5-0.01-1.98-0.02-3.97-0.03-5.95-0.01-2.84-0.01-5.68-0.02-8.52 0-0.9-0.01-1.79-0.01-2.71 0-2.12 0.05-4.24 0.11-6.36l1-1c0.23-2.02 0.41-4.04 0.56-6.06 0.09-1.11 0.17-2.21 0.26-3.35 0.06-0.85 0.12-1.71 0.18-2.59z" fill="#0C86D9"/>
<path transform="translate(757,406)" d="m0 0c3.68 0.71 6.75 2.16 10 4 0.99 1.49 0.99 1.49 2 3 2.04 0.9 4.09 1.51 6.22 2.16 0.59 0.27 1.18 0.55 1.78 0.84l1 3h-17l-1-6h-2l-1-7z" fill="#57B8C7"/>
<path transform="translate(210,471)" d="m0 0h2l1 2c0.99-0.33 1.98-0.66 3-1-0.02 0.78-0.04 1.57-0.06 2.38-0.13 2.6-0.13 2.6 1.06 4.62l-1 2c1.08-0.34 1.08-0.34 2.19-0.69 3.6-0.4 4.96 0.55 7.81 2.69l1 2c-0.99-0.19-1.98-0.37-3-0.56-4.17-0.62-7.85-0.1-12 0.56v-2h-6c-1.12-6.75-1.12-6.75 0-9h2l1-2 1-1z" fill="#007CD2"/>
<path transform="translate(106,446)" d="m0 0c2.97 0.5 2.97 0.5 6 1v2c0.82-0.01 1.64-0.01 2.48-0.02 7.71-0.06 15.4-0.11 23.1-0.14 3.96-0.01 7.93-0.03 11.9-0.07 3.83-0.03 7.65-0.05 11.5-0.05 1.46-0.01 2.91-0.02 4.37-0.04 2.05-0.02 4.09-0.02 6.14-0.02 1.16-0.01 2.32-0.01 3.52-0.02 3.26 0.39 4.62 1.16 6.99 3.36l-1 3c-0.42-0.49-0.83-0.98-1.26-1.48-2.96-2.58-6.72-1.8-10.4-1.68-1.82 0.03-3.64 0.06-5.46 0.08-0.96 0.02-1.91 0.03-2.89 0.05-4.88 0.05-9.75-0.05-14.6-0.15-0.98-0.02-1.95-0.04-2.95-0.06-1.98-0.05-3.96-0.09-5.93-0.13-3.05-0.07-6.1-0.13-9.15-0.19-1.95-0.04-3.9-0.08-5.85-0.12-1.36-0.03-1.36-0.03-2.74-0.05-1.26-0.03-1.26-0.03-2.54-0.06-0.73-0.02-1.46-0.04-2.22-0.05-1.93-0.16-1.93-0.16-4.93-1.16v-2l-4-2z" fill="#000102"/>
<path transform="translate(1460,533)" d="m0 0c0.99 0.33 1.98 0.66 3 1-4.14 3.82-8.21 6.2-13.3 8.61-2.94 1.5-5.65 3.21-8.41 5.01-3.99 2.61-7.92 4.51-12.3 6.38-2.24 1.4-4.41 2.88-6.59 4.38-2.54 1.71-5.11 3.34-7.72 4.93-0.8 0.49-1.6 0.98-2.43 1.49-2.11 1.12-3.92 1.75-6.26 2.2v-3c1.98-0.33 3.96-0.66 6-1v-2c0.99-0.33 1.98-0.66 3-1l1-2h5v-3c1.98-0.33 3.96-0.66 6-1v-2c0.99-0.33 1.98-0.66 3-1l1-2c1.67-0.33 3.33-0.67 5-1l1-2c2.56-0.62 2.56-0.62 5-1v-2c1.98-0.33 3.96-0.66 6-1l1-3h3v-2c1.98-0.33 3.96-0.66 6-1v-2l2-1z" fill="#000102"/>
<path transform="translate(1311,461)" d="m0 0c3.27 2.91 3.96 4.41 4.25 8.81-0.08 1.05-0.16 2.11-0.25 3.19-0.99 0.5-0.99 0.5-2 1-0.66 2.53-0.66 2.53-1 5-2.97 0.33-5.94 0.66-9 1l1-3v-3c0.99-0.33 1.98-0.66 3-1 0.81-2.11 0.81-2.11 1.19-4.56 0.16-0.83 0.31-1.66 0.48-2.51 0.11-0.63 0.22-1.27 0.33-1.93h-7v-2c3.1-0.92 5.78-1.48 9-1z" fill="#08C1AE"/>
<path transform="translate(1176,369)" d="m0 0c5.96 7.68 9.84 18.6 8.75 28.4-0.25 1.17-0.49 2.35-0.75 3.56-2.6-2.71-2.99-3.89-3.19-7.75 0.1-1.61 0.1-1.61 0.19-3.25-0.99-0.33-1.98-0.66-3-1l-1-9c-0.99-0.33-1.98-0.66-3-1v-7h-2v-2c2-1 2-1 4-1z" fill="#15BFB2"/>
<path transform="translate(376,472)" d="m0 0 6 3v2c0.78-0.04 1.57-0.08 2.38-0.12 2.62 0.12 2.62 0.12 4.62 2.12 0.99 0.33 1.98 0.66 3 1-0.69 1.94-0.69 1.94-2 4-2.62 0.75-2.62 0.75-5 1v-2h-5l-1-3c-2.97-0.5-2.97-0.5-6-1v-2c-0.62-0.12-1.24-0.25-1.88-0.38-2.12-0.62-2.12-0.62-4.12-2.62 1.67 0.06 1.67 0.06 3.38 0.12 3.66 0.29 3.66 0.29 5.62-2.12z" fill="#0284D7"/>
<path transform="translate(99,376)" d="m0 0h1l-1 56c-0.99-0.33-1.98-0.66-3-1-0.08-6.35-0.13-12.7-0.16-19.1-0.02-2.16-0.04-4.33-0.07-6.49-0.03-3.1-0.05-6.21-0.06-9.31-0.02-0.97-0.03-1.94-0.05-2.94v-2.73c-0.01-0.79-0.01-1.58-0.02-2.4 0.45-2.56 1.39-3.44 3.36-5.07l-2-1 2-6z" fill="#59B9C8"/>
<path transform="translate(1128,356)" d="m0 0c3.6-0.09 7.21-0.14 10.8-0.19 1.54-0.04 1.54-0.04 3.11-0.07 1.47-0.02 1.47-0.02 2.97-0.03 1.36-0.03 1.36-0.03 2.75-0.05 2.36 0.34 2.36 0.34 4.18 1.73 1.18 1.61 1.18 1.61 1.18 3.61-3.77 0.23-7.54 0.43-11.3 0.62-1.61 0.1-1.61 0.1-3.25 0.2-1.03 0.05-2.06 0.1-3.12 0.16-1.42 0.08-1.42 0.08-2.87 0.16-2.45-0.14-2.45-0.14-5.45-2.14l1-4z" fill="#4396A4"/>
<path transform="translate(1238,423)" d="m0 0c0.94 3.07 1 5.39 0.56 8.56-0.34 2.54-0.56 4.87-0.56 7.44l-4 1 2 4-2 2-6-4c0.35-0.95 0.7-1.9 1.06-2.88 1.29-2.99 1.29-2.99-0.06-5.12 2-3 2-3 4-4 0.16-0.66 0.33-1.32 0.5-2 0.16-0.66 0.33-1.32 0.5-2l2-1 2-2z" fill="#00BAA6"/>
<path transform="translate(1178,416)" d="m0 0 1 3 2 1c0.37 12.7 0.37 12.7-2 18l-2-1c-0.14-1.13-0.29-2.27-0.44-3.44-0.18-1.17-0.37-2.35-0.56-3.56l-3-2c-1.19-2.12-1.19-2.12-2-4h3l-2-1c0.19-2.38 0.19-2.38 1-5 2.56-1.31 2.56-1.31 5-2z" fill="#00ABA7"/>
<path transform="translate(1127,359)" d="m0 0c1.88 1.5 1.88 1.5 3 3h-5c1.2 2.49 2.45 4.68 4 7l-4 4v-3l-10-2v-3h3v-3c2.39-3.58 4.93-3.51 9-3zm-18 9h6l-1 2h-5v-2z" fill="#009084"/>
<path transform="translate(433,361)" d="m0 0 3 2c-0.52 1.11-1.03 2.23-1.56 3.38-1.93 5.02-1.33 9.41-0.44 14.6l-2-1-1 3h-3c-2.93-5.86-0.91-13.4 1.05-19.3 0.95-1.71 0.95-1.71 3.95-2.71z" fill="#168EBA"/>
<path transform="translate(736,444)" d="m0 0h3v2c0.93-0.04 1.86-0.08 2.81-0.12 3.19 0.12 3.19 0.12 6.19 2.12 2.86 0.31 2.86 0.31 6.09 0.27h3.62c1.88-0.01 1.88-0.01 3.79-0.02 1.25 0.01 2.5 0.02 3.79 0.02h3.62c1.09-0.01 2.19-0.01 3.32-0.01 2.98-0.06 2.98-0.06 5.77-2.26 2.19 0.38 2.19 0.38 4 1-9.61 5.84-21.5 6.83-32.5 4.19-3.87-1.32-7.69-2.69-11.5-4.19v-2l-2-1z" fill="#000102"/>
<path transform="translate(173,478)" d="m0 0c-2.05 3.08-2.69 3.74-6 5-2.47 0.32-2.47 0.32-5.2 0.41-0.98 0.04-1.96 0.08-2.97 0.12-1.53 0.05-1.53 0.05-3.08 0.09-1.03 0.04-2.06 0.08-3.13 0.12-2.54 0.1-5.08 0.18-7.62 0.26l-1-2c4.94-2.08 8.63-2 14-2l1-3c5.49-1.12 8.83-0.79 14 1z" fill="#017AD2"/>
<path transform="translate(1184,477)" d="m0 0v6h-28v-3h12c0.99-0.33 1.98-0.66 3-1 1.14-0.22 1.14-0.22 2.31-0.44 2.81-0.52 2.81-0.52 5.88-1.68 2.81-0.88 2.81-0.88 4.81 0.12z" fill="#00C2AB"/>
<path transform="translate(1029,396)" d="m0 0c1.46 2.92 1.11 5.5 1.1 8.76 0 0.66-0.01 1.32-0.01 2.01 0 2.12-0.01 4.24-0.03 6.35 0 1.44-0.01 2.88-0.01 4.31-0.01 3.53-0.03 7.05-0.05 10.6h-2l-1 4c-2.26-4.51-1.23-10.7-1.24-15.7-0.01-2.28-0.04-4.56-0.07-6.84-0.01-1.44-0.01-2.88-0.02-4.33-0.01-1.31-0.02-2.63-0.03-3.99 0.12-1.03 0.24-2.06 0.36-3.13l3-2z" fill="#57B8C7"/>
<path transform="translate(1339,603)" d="m0 0h6l-1 3h2v2h-2v4c-1.58 0.2-3.17 0.38-4.75 0.56-0.88 0.11-1.76 0.21-2.67 0.32-2.46 0.11-4.25-0.14-6.58-0.88v-3h4v-3h5v-3z" fill="#602A43"/>
<path transform="translate(545,339)" d="m0 0h3c1.08 4.08 0.83 7.18 0.06 11.3-0.19 1.07-0.39 2.14-0.59 3.24-0.23 1.21-0.23 1.21-0.47 2.45-0.99 0.33-1.98 0.66-3 1l-1 3-3-2c-0.73-4.36 0.9-7.24 3-11h2v-8z" fill="#56B3C1"/>
<path transform="translate(204,360)" d="m0 0c1.98 0.66 3.96 1.32 6 2v3c0.64 0.1 1.28 0.21 1.94 0.31 0.68 0.23 1.36 0.46 2.06 0.69l1 3 2 2c-0.99 0.5-0.99 0.5-2 1v5l-4-1v-3c-0.59-2.18-0.59-2.18-2-4-2.56-0.81-2.56-0.81-5-1-1.12-5.75-1.12-5.75 0-8z" fill="#0D62D0"/>
<path transform="translate(961,441)" d="m0 0h1c1.38 14 0.71 27.9 0 42h-3l-1-5h2c0.05-4.22 0.09-8.43 0.11-12.6 0.01-1.44 0.02-2.87 0.04-4.31 0.03-2.06 0.04-4.12 0.05-6.18 0.01-1.25 0.02-2.49 0.03-3.77 0.01-3.26 0.01-3.26-2.23-6.09l1-2h2v-2z" fill="#56B8C7"/>
<path transform="translate(542,452)" d="m0 0h3c0.1 1.09 0.21 2.19 0.31 3.31 0.69 3.68 0.97 4.44 3.69 6.69v2l2 1v8h-2v-3h-3c-0.12-0.8-0.25-1.61-0.38-2.44-0.3-1.27-0.3-1.27-0.62-2.56l-2-1c-0.96-2.88-1.11-4.7-1.06-7.69 0.01-0.81 0.02-1.61 0.02-2.45 0.02-0.61 0.03-1.23 0.04-1.86z" fill="#1692C1"/>
<path transform="translate(602,358)" d="m0 0c2.87 0.57 3.86 0.86 6 3 1.75 8.22 0.79 16.7 0 25h-2c0.01-0.69 0.02-1.38 0.04-2.09 0.54-12.4 0.54-12.4-5.04-22.9l1-3z" fill="#0FA6BD"/>
<path transform="translate(798,310)" d="m0 0h8l1 2c2.53 0.66 2.53 0.66 5 1v5l2 1h-6l-1-2c-2.17 0.51-4 1-6 2l1-3c-1.98-0.66-3.96-1.32-6-2 0.99-0.33 1.98-0.66 3-1l-1-3z" fill="#116C8E"/>
<path transform="translate(727,406)" d="m0 0h1c1.36 7.54 2.21 14.7 1.88 22.3 0.13 2.94 0.89 5.01 2.12 7.66-0.99-0.33-1.98-0.66-3-1v-2h-2c-1.14-4.22-0.8-7.53-0.06-11.8 0.29-1.74 0.29-1.74 0.59-3.52 0.15-0.88 0.31-1.76 0.47-2.67h-2v7h-1c-0.05-2.29-0.09-4.58-0.12-6.88-0.03-1.27-0.05-2.55-0.08-3.86 0.2-3.26 0.2-3.26 2.2-5.26z" fill="#59B9C8"/>
<path transform="translate(921,454)" d="m0 0-1 3c-10.1 3.44-21 4.26-31 0l-1-2h9v2h15v-2c3.06-0.54 5.89-1 9-1z" fill="#000102"/>
<path transform="translate(814,319)" d="m0 0 1 3h3l-1 3c-0.07 2.74-0.09 5.45-0.06 8.19 0 0.75 0.01 1.5 0.01 2.27 0.01 1.85 0.03 3.69 0.05 5.54h-3c-1.31-3.97-1.15-7.99-1.12-12.1-0.01-0.73-0.01-1.46-0.02-2.21 0.01-5.42 0.01-5.42 1.14-7.67z" fill="#55B1BF"/>
<path transform="translate(1260,655)" d="m0 0-1 7h-6v2h-7c0-3 0-3 1.54-4.61 4.23-3.2 6.91-5.22 12.5-4.39z" fill="#AE4B77"/>
<path transform="translate(1488,515)" d="m0 0h5c-0.62 1.88-0.62 1.88-2 4-2.88 1.12-2.88 1.12-6 2-3.31 1.38-3.91 1.87-6 5-1.65 0.7-3.32 1.36-5 2-2.36 1.29-4.69 2.62-7.01 3.98-1.99 1.02-1.99 1.02-3.99 1.02 0.49-1.49 0.49-1.49 1-3h3v-2c1.98-0.33 3.96-0.66 6-1v-2c1.98-0.33 3.96-0.66 6-1v-3h3v-2c1.98-0.33 3.96-0.66 6-1v-3z" fill="#000102"/>
<path transform="translate(78,318)" d="m0 0 5 1v2l-3 2-1 3c-1.62 1.71-3.29 3.37-5 5l-3 3-2-1 1-5h3v-5h3v-3h2v-2z" fill="#4BA5B8"/>
<path transform="translate(1105,283)" d="m0 0h1v39h-2c-1.52-3.05-1.14-6.22-1.12-9.56-0.01-0.7-0.01-1.4-0.02-2.12 0.01-5.19 0.01-5.19 1.14-6.32 0.16-1.56 0.25-3.13 0.32-4.69 0.06-1.42 0.06-1.42 0.12-2.86 0.04-1 0.08-1.99 0.12-3.01 0.07-1.5 0.07-1.5 0.13-3.02 0.11-2.48 0.21-4.95 0.31-7.42z" fill="#1076DB"/>
<path transform="translate(336,454)" d="m0 0c2.31 0.33 4.62 0.66 7 1v2h18v-2h8l-1 3c-0.9 0.09-0.9 0.09-1.83 0.18-1.2 0.13-1.2 0.13-2.42 0.26-0.79 0.08-1.58 0.16-2.39 0.24-2.31 0.26-2.31 0.26-4.29 0.87-5.96 1.3-13 0.43-18.3-2.61-0.91-0.64-1.81-1.28-2.75-1.94v-1z" fill="#000102"/>
<path transform="translate(1140,355)" d="m0 0c7.73-0.14 15.3 0.25 23 1l1 5c-8.18 0.47-8.18 0.47-11.5-1.44-0.49-0.51-0.99-1.03-1.5-1.56-1.66-1.66-3.78-1.36-6.06-1.56-0.92-0.09-1.84-0.17-2.79-0.26-1.06-0.09-1.06-0.09-2.15-0.18v-1z" fill="#1E575F"/>
<path transform="translate(540,405)" d="m0 0c0.99 0.33 1.98 0.66 3 1 0.22 2.96 0.43 5.92 0.62 8.88 0.07 0.84 0.13 1.68 0.2 2.55 0.05 0.8 0.1 1.61 0.16 2.44 0.05 0.74 0.1 1.48 0.16 2.25-0.14 1.88-0.14 1.88-2.14 3.88v-4h-3c-0.18-11.5-0.18-11.5 1-17z" fill="#0DA1BC"/>
<path transform="translate(888,407)" d="m0 0h30v2c-10 0.73-19.9 1.14-30 1v-3z" fill="#040607"/>
<path transform="translate(687,362)" d="m0 0h3c1.07 3.46 1.1 6.64 1.06 10.2-0.01 1.08-0.02 2.16-0.02 3.27-0.02 0.82-0.03 1.64-0.04 2.48h-2v7h-1c-1.02-5.02-1.12-9.79-1.06-14.9 0-0.78 0.01-1.56 0.01-2.37 0.01-1.92 0.03-3.83 0.05-5.75z" fill="#45B4C5"/>
<path transform="translate(543,419)" d="m0 0 1 2c0.99-0.33 1.98-0.66 3-1l1 8c-0.64 0.37-1.29 0.73-1.95 1.11-2.81 2.59-2.64 4.33-2.8 8.08-0.06 1.08-0.11 2.17-0.17 3.29-0.03 0.83-0.05 1.66-0.08 2.52h-1c-1.07-6.03-1.1-11.9-1-18l2-1v-5z" fill="#1494C0"/>
<path transform="translate(307,366)" d="m0 0c3.59 3.59 2.97 9.12 3 14-0.42 2.55-1.06 4.58-2 7-3.6-3.6-3.16-8.31-3.19-13.2-0.01-1.04-0.03-2.09-0.04-3.17 0.23-2.64 0.23-2.64 2.23-4.64z" fill="#289EC3"/>
<path transform="translate(331,445)" d="m0 0h1l2 6h2v4c1.98 0.66 3.96 1.32 6 2v3c-0.76-0.17-1.53-0.33-2.31-0.5-2.73-0.59-2.73-0.59-5.69-0.5-3-3-3-3-4-5 0.09-1.55 0.24-3.09 0.44-4.62 0.1-0.82 0.2-1.64 0.31-2.48 0.08-0.63 0.16-1.25 0.25-1.9z" fill="#117BCB"/>
<path transform="translate(346 407)" d="m0 0h2.08c2.19 0.01 4.38 0.02 6.57 0.04 1.48 0 2.97 0 4.45 0.01 3.64 0.01 7.28 0.03 10.9 0.05l-1 2c-15.8 0.49-15.8 0.49-32 1v-2c2.98-1.49 5.67-1.11 8.98-1.1z" fill="#000001"/>
<path transform="translate(115,480)" d="m0 0 2 2 1-2h2v3c1.03-0.21 2.06-0.41 3.12-0.62 4-0.39 6.22 0.1 9.88 1.62v1h-26v-1c0.76-0.14 1.53-0.29 2.31-0.44 2.77-0.52 2.77-0.52 5.69-1.56v-2z" fill="#007CD2"/>
<path transform="translate(583,450)" d="m0 0c2.48 0.99 2.48 0.99 5 2v2l15 1v2h3l-1 3-1-1c-2.2-0.3-4.41-0.56-6.62-0.81-5.78-0.78-9.66-1.82-14.4-5.19v-3z" fill="#000102"/>
<path transform="translate(372,416)" d="m0 0h2c0.39 2.06 0.76 4.12 1.12 6.19 0.21 1.15 0.42 2.29 0.64 3.48 0.25 3.47-0.2 5.26-1.76 8.33l-4-2c0.14-2.48 0.29-4.96 0.44-7.44 0.04-0.7 0.08-1.41 0.12-2.14 0.33-5.31 0.33-5.31 1.44-6.42z" fill="#0284D7"/>
<path transform="translate(439 361)" d="m0 0c0.6 0.35 1.2 0.7 1.81 1.06-0.61 3.55-1.38 6.77-3 10-0.99 0.33-1.98 0.66-3 1-1.12-2.18-1.12-2.18-2-5 0.94-2.68 0.94-2.68 2-5l-1-2c3-1 3-1 5.19-0.06z" fill="#1691C4"/>
<path transform="translate(161 452)" d="m0 0c0.76 0.21 1.53 0.41 2.31 0.62-0.99 0.33-1.98 0.67-3 1-0.33 1-0.66 1.99-1 3-0.33-0.32-0.66-0.66-1-1v1c-1.65 0.33-3.3 0.67-5 1v2c-0.76-0.18-1.52-0.37-2.31-0.56-2.78-0.66-2.78-0.66-5.69 0.56-0.99-1.31-1.98-2.63-3-4 1-1 1-1 2.96-1.13 0.8 0 1.6 0.01 2.42 0.01 0.79 0 1.58-0.01 2.4-0.01 2.22 0.13 2.22 0.13 5.22 1.13v-2c3-2 3-2 5.69-1.62z" fill="#007DD2"/>
<path transform="translate(179,457)" d="m0 0c0.99 0.33 1.98 0.66 3 1 0.03 2.92 0.05 5.83 0.06 8.75 0.01 0.82 0.02 1.65 0.03 2.5 0 0.8 0 1.6 0.01 2.42 0 0.74 0.01 1.47 0.01 2.22-0.11 2.16-0.52 4.04-1.11 6.11h-2l1-5-2-1c-0.03-2.65-0.05-5.29-0.06-7.94-0.01-0.75-0.02-1.51-0.03-2.28-0.01-1.93 0.04-3.86 0.09-5.78l1-1z" fill="#0E85D1"/>
<path transform="translate(1209,399)" d="m0 0c0.99 0.33 1.98 0.66 3 1-0.11 2.77-0.24 5.54-0.38 8.31-0.03 0.79-0.06 1.57-0.09 2.38-0.04 0.76-0.08 1.52-0.12 2.3-0.03 0.69-0.06 1.39-0.09 2.11-0.32 1.9-0.32 1.9-2.32 4.9-1.23-6.62-1.33-13.3-1-20l1-1z" fill="#54B9C6"/>
<path transform="translate(1141,364)" d="m0 0h5c1.56 2.81 1.56 2.81 3 6l-1 3h-9v-2h2l-1-4c0.99-0.33 1.98-0.66 3-1l-2-2z" fill="#00ADA7"/>
<path transform="translate(106,304)" d="m0 0h48c0.5 1.49 0.5 1.49 1 3-0.78-0.16-1.57-0.32-2.38-0.48-4.55-0.65-9.02-0.75-13.6-0.84-1.42-0.03-1.42-0.03-2.87-0.06-3-0.06-6.01-0.12-9.02-0.18-2.04-0.05-4.08-0.09-6.13-0.13-5-0.11-9.99-0.21-15-0.31v-1z" fill="#000102"/>
<path transform="translate(515,309)" d="m0 0 2 1c2.43 13.8 2.43 13.8-1 19v-2h-2c-0.1-6.11-0.07-12 1-18z" fill="#59B9C8"/>
<path transform="translate(1093 518)" d="m0 0c0.7 0 1.4 0.01 2.13 0.01 1.73 0.02 3.45 0.03 5.18 0.05l-1 3c-0.85-0.03-1.71-0.07-2.6-0.1-6.71-0.16-11.4 0-17.4 3.1h-3v-3h6v-2c3.62-1.2 6.93-1.11 10.7-1.06z" fill="#000102"/>
<path transform="translate(1026,432)" d="m0 0h1c0.2 1.77 0.38 3.54 0.56 5.31 0.11 0.99 0.21 1.97 0.32 2.99 0.12 2.7 0.12 2.7-0.88 5.7h-2l1 11h-3c0.11-3.6 0.24-7.21 0.38-10.8 0.03-1.03 0.06-2.05 0.09-3.11 0.04-0.98 0.08-1.96 0.12-2.97 0.03-0.91 0.06-1.82 0.09-2.75 0.32-2.36 0.32-2.36 2.32-5.36z" fill="#00A8A6"/>
<path transform="translate(1157,663)" d="m0 0 1 2c3.03 0.66 3.03 0.66 6 1v3h2v3c-4.74-1.83-9.36-3.92-14-6v-2l-4-1c3.12-1.56 5.67-0.67 9 0z" fill="#010204"/>
<path transform="translate(1073,233)" d="m0 0c1.94 0.62 1.94 0.62 4 2 0.94 2.94 0.94 2.94 1 6-1.44 1.75-1.44 1.75-3 3v2h-2c-0.63-4.03-1.24-7.92-1-12l1-1z" fill="#0B73D5"/>
<path transform="translate(1076,561)" d="m0 0v14h-3c-1.74-1.74-1.21-4.07-1.25-6.44-0.03-0.99-0.05-1.97-0.08-2.99 0.11-0.85 0.22-1.7 0.33-2.57 3-2 3-2 4-2z" fill="#C95B76"/>
<path transform="translate(1338,637)" d="m0 0 1 5c-0.8 0.12-1.61 0.25-2.44 0.38-1.27 0.3-1.27 0.3-2.56 0.62l-1 2h-5l-1-2c3.12-3.45 6.24-6 11-6z" fill="#AD4B77"/>
<path transform="translate(1073,548)" d="m0 0h2c0.25 2.1 0.47 4.21 0.69 6.31 0.13 1.17 0.25 2.35 0.38 3.55-0.07 3.14-0.07 3.14-1.55 5.06-0.5 0.36-1 0.71-1.52 1.08-1-1-1-1-1.13-4.12 0-1.28 0-2.56 0.01-3.88-0.01-1.28-0.01-2.56-0.01-3.88 0.13-3.12 0.13-3.12 1.13-4.12z" fill="#867394"/>
<path transform="translate(489,356)" d="m0 0 12 1v2c-1.69 1.69-1.69 1.69-4 3-2.96-0.14-4.49-0.59-6.81-2.44-1.19-1.56-1.19-1.56-1.19-3.56z" fill="#1488DB"/>
<path transform="translate(811,333)" d="m0 0 2 1c1.26 4.48 1.26 4.48 0 7h-14v-2c2.25-1.12 2.25-1.12 5-2 2.19 0.94 2.19 0.94 4 2l2-1c0.66-2.53 0.66-2.53 1-5z" fill="#0AA3BC"/>
<path transform="translate(577,324)" d="m0 0 1 2-1 3c0.09 2.07 0.09 2.07 0.44 4.19 0.18 1.26 0.37 2.51 0.56 3.81l-5 1-1-3 2-2c-0.29-2.01-0.63-4.01-1-6 1-2 1-2 4-3z" fill="#1591C1"/>
<path transform="translate(555,319)" d="m0 0c3.46-0.03 6.92-0.05 10.4-0.06 0.98-0.01 1.96-0.02 2.98-0.03 1.41 0 1.41 0 2.85-0.01 1.3-0.01 1.3-0.01 2.64-0.01 2.15 0.11 2.15 0.11 4.15 1.11l-1 2c-7.26-0.33-14.5-0.66-22-1v-2z" fill="#000101"/>
<path transform="translate(409,401)" d="m0 0h3v26h-1l-2-26z" fill="#1B96C1"/>
<path transform="translate(1079,219)" d="m0 0v12h-3c-1.28-3.85-1.07-6.95-1-11 2-1 2-1 4-1z" fill="#0E67D8"/>
<path transform="translate(1186,463)" d="m0 0h1v20h-3c0.14-2.77 0.29-5.54 0.44-8.31 0.04-0.79 0.08-1.57 0.12-2.38 0.04-0.76 0.08-1.52 0.12-2.3 0.04-0.69 0.08-1.39 0.11-2.11 0.21-1.9 0.21-1.9 1.21-4.9z" fill="#59B9C8"/>
<path transform="translate(688,412)" d="m0 0h1l1 10h1l-1 10h-2c-1.2-4.15-0.89-7.99-0.56-12.2 0.05-0.75 0.1-1.49 0.16-2.26 0.12-1.83 0.26-3.66 0.4-5.49z" fill="#4DB5C6"/>
<path transform="translate(1240,138)" d="m0 0 8 1v2l5 1 1 3c-5.6-0.42-9.59-2.69-14-6v-1z" fill="#2C83B2"/>
<path transform="translate(1072,574)" d="m0 0 4 1v13l-1-3h-2c-0.88-3.73-1.09-7.17-1-11z" fill="#5BB2C3"/>
<path transform="translate(1065,458)" d="m0 0h1v21c-2.93-2.93-2.46-6.18-2.62-10.1-0.04-0.76-0.08-1.51-0.12-2.29-0.1-1.86-0.18-3.73-0.26-5.59h2v-3z" fill="#39B9BB"/>
<path transform="translate(64,442)" d="m0 0h3c0.99 2.64 1.98 5.28 3 8-0.99 0.33-1.98 0.66-3 1l-1 2c-3.08-5.29-3.08-5.29-2.69-8.88 0.23-0.7 0.46-1.4 0.69-2.12z" fill="#067ED4"/>
<path transform="translate(723,393)" d="m0 0c2.81 4.22 4.44 9.02 3.68 14.1-0.56 1.92-0.56 1.92-1.68 4.86l-2-1v-18z" fill="#1694C1"/>
<path transform="translate(1552,476)" d="m0 0h3c-1.53 4.04-4.04 5.79-7.5 8.25-0.98 0.71-1.96 1.41-2.97 2.14-2.53 1.61-2.53 1.61-4.53 1.61v-3l5-1v-2c0.99-0.33 1.98-0.66 3-1l1-2h3v-3z" fill="#000001"/>
<path transform="translate(1147,476)" d="m0 0c1.48 0.99 1.48 0.99 3 2l2-1v2h3v4h-6l-3-6 1-1z" fill="#00C1AA"/>
<path transform="translate(1121,359)" d="m0 0c5.54-0.37 5.54-0.37 7.88 1.5 0.37 0.5 0.74 0.99 1.12 1.5h-5v2l-5 1-1-2c0.94-2.12 0.94-2.12 2-4z" fill="#009483"/>
<path transform="translate(1147,664)" d="m0 0h5v2h3l1 3-4 2c-1.71-1.62-3.37-3.29-5-5v-2z" fill="#B34C76"/>
<path transform="translate(1351,633)" d="m0 0h-2v3h-4v3h-6c6-8.14 6-8.14 12-6z" fill="#AE4B77"/>
<path transform="translate(1319,615)" d="m0 0h5c-2.26 2.48-4.56 4.03-7.5 5.62-0.77 0.43-1.55 0.86-2.34 1.29-2.16 1.09-2.16 1.09-5.16 2.09v-3h4v-2l5-1 1-3z" fill="#000102"/>
<path transform="translate(411,460)" d="m0 0h1v22h-3c0.16-0.58 0.33-1.15 0.5-1.75 0.49-2.21 0.6-4.07 0.56-6.32-0.01-0.75-0.01-1.5-0.02-2.28-0.01-0.77-0.03-1.54-0.04-2.34-0.05-2.77-0.05-5.53 0-8.31l1-1z" fill="#158FC2"/>
<path transform="translate(367,457)" d="m0 0v4c-2.31 0.33-4.62 0.66-7 1l-2-3c3.13-1.86 5.37-2.2 9-2z" fill="#2E89BE"/>
<path transform="translate(735,444)" d="m0 0c3.73 1.24 5.39 3.11 8 6v2c-3.72 0.2-4.77 0.15-8-2-0.75-2.56-0.75-2.56-1-5l1-1z" fill="#0CA8BD"/>
<path transform="translate(1354,199)" d="m0 0 1 2c1.98 1.05 3.97 2.05 6 3v2c-3.37-0.55-5.08-1.05-8-3-1.66-0.38-3.32-0.73-5-1v-2c2-1 2-1 6-1z" fill="#0F5ECB"/>
<path transform="translate(578,325)" d="M0 0 C2 2 2 2 2.27 4.06 C2.26 4.84 2.26 5.63 2.25 6.44 C2.26 7.22 2.26 8 2.27 8.81 C2 11 2 11 0 14 C-0.34 12.34 -0.67 10.67 -1 9 C-1.23 7.97 -1.45 6.94 -1.69 5.88 C-2 3 -2 3 0 0 Z " fill="#1285DD"/>
<path transform="translate(433,361)" d="m0 0 3 2-1 4c-1.98 0.33-3.96 0.66-6 1l1-6c0.99-0.33 1.98-0.66 3-1z" fill="#4799A8"/>
<path transform="translate(747,337)" d="m0 0 3 3v3c-4.46 0.5-4.46 0.5-9 1 1.98-2.31 3.96-4.62 6-7z" fill="#0A9BBA"/>
<path transform="translate(287,358)" d="m0 0h3v12l-3-2c-0.29-2.38-0.29-2.38-0.19-5.12 0.03-0.92 0.06-1.83 0.08-2.76 0.04-0.7 0.07-1.4 0.11-2.12z" fill="#59B9C8"/>
<path transform="translate(70,335)" d="m0 0c1.6 3.2 0.03 5.72-1 9-0.99-0.33-1.98-0.66-3-1v-6l4-2z" fill="#59B9C8"/>
<path transform="translate(790,309)" d="m0 0h6v2c-5.57 1.66-9.31 2.19-15 1v-2h9v-1z" fill="#1E97C3"/>
<path transform="translate(1288,163)" d="m0 0c3.15 0.7 6.03 1.76 9 3v2h2l1 3-5-1v-2c-1.45-0.4-1.45-0.4-2.94-0.81-1.01-0.39-2.02-0.79-3.06-1.19l-1-3z" fill="#0F73CE"/>
<path transform="translate(1043,362)" d="m0 0c0.99 0.33 1.98 0.66 3 1l-1 3c-0.99 0.33-1.98 0.66-3 1-0.41 0.52-0.83 1.03-1.25 1.56-2.73 2.24-5.35 1.63-8.75 1.44l-1-2c3.08-0.29 3.08-0.29 6.15-0.59 0.61-0.13 1.22-0.27 1.85-0.41l1-2h2l1-3z" fill="#00494D"/>
<path transform="translate(731,326)" d="m0 0c0.67 2 1.33 4 2 6-2.31 0.33-4.62 0.66-7 1v-4c2.5-1.75 2.5-1.75 5-3z" fill="#148ABF"/>
<path transform="translate(90,474)" d="m0 0c1.71 1.62 3.37 3.29 5 5v2h-2v-2c-1.98 0.33-3.96 0.66-6 1l-1-2 4-4z" fill="#007DD2"/>
<path transform="translate(435,383)" d="m0 0c1.94 0.75 1.94 0.75 4 2 0.75 2.12 0.75 2.12 1 4h-6l-2-4h3v-2z" fill="#0C83B7"/>
<path transform="translate(61,356)" d="m0 0c1.48 0.99 1.48 0.99 3 2 0.19 3.62 0.19 3.62 0 7-0.99 0.5-0.99 0.5-2 1l-2-1 1-9z" fill="#54B6C7"/>
<path transform="translate(1074,292)" d="m0 0h2c0.19 1.79 0.38 3.58 0.56 5.38 0.11 0.99 0.21 1.99 0.32 3.02 0.12 2.6 0.12 2.6-0.88 4.6h-2c-0.23-2.02-0.46-4.04-0.68-6.05-0.23-2.02-0.23-2.02-1.32-3.95h2v-3z" fill="#1956CB"/>
<path transform="translate(1370,585)" d="m0 0h6v2l-11 4-1-3h6v-3z" fill="#000102"/>
<path transform="translate(739,482)" d="m0 0c3.51-0.1 6.57 0.31 10 1 1.67 0.04 3.33 0.05 5 0v2h-15v-3z" fill="#0A9CBA"/>
<path transform="translate(206,464)" d="m0 0c1.98 0.5 1.98 0.5 4 1v5l-4 2c-1.12-5.75-1.12-5.75 0-8z" fill="#0279D2"/>
<path transform="translate(100,369)" d="m0 0c0.08 4.16-0.02 7.95-1 12l-2-1v-10c2-1 2-1 3-1z" fill="#1088D3"/>
<path transform="translate(700,329)" d="m0 0h2c0.81 2.91 1.22 4.46 0.06 7.31-0.52 0.84-0.52 0.84-1.06 1.69h-3l2-9z" fill="#4BB4C5"/>
<path transform="translate(792,313)" d="m0 0c1.26 0.12 2.52 0.25 3.81 0.38 1.06 0.1 1.06 0.1 2.15 0.21 2.04 0.41 2.04 0.41 5.04 2.41l-1 1c-1.69-0.09-3.38-0.25-5.06-0.44-1.38-0.15-1.38-0.15-2.79-0.31-0.71-0.08-1.42-0.16-2.15-0.25v-3z" fill="#0A9CBA"/>
<path transform="translate(97.2 309)" d="m0 0c1.39 0.34 1.39 0.34 2.81 0.69-0.99 0.49-0.99 0.49-2 1v2h-5l-1 2-1-3c2.04-2.83 2.6-3.04 6.19-2.69z" fill="#2B91D5"/>
<path transform="translate(210,481)" d="m0 0c1.98 0.11 3.96 0.24 5.94 0.38 1.1 0.06 2.2 0.13 3.34 0.21 1.35 0.2 1.35 0.2 2.72 0.41l1 2-11 1v-2h-2v-2z" fill="#1173D6"/>
<path transform="translate(540,405)" d="m0 0c0.99 0.33 1.98 0.66 3 1v10l-1-2h-2v-9z" fill="#15A4BE"/>
<path transform="translate(1125,362)" d="m0 0c3.38-0.12 3.38-0.12 7 0l2 2c-2 1-2 1-6 1l3 2c-3.37-0.55-5.08-1.05-8-3h2v-2z" fill="#00B6A6"/>
<path transform="translate(1027,476)" d="m0 0 2 4c-0.99 1.49-0.99 1.49-2 3-3.62 0.19-3.62 0.19-7 0l-1-2c1.13-0.27 2.27-0.54 3.44-0.81 1.17-0.39 2.35-0.79 3.56-1.19l1-3z" fill="#0ABAAA"/>
<path transform="translate(921,454)" d="m0 0-1 3c-2.07 0.73-2.07 0.73-4.56 1.19-0.83 0.16-1.66 0.31-2.51 0.48-0.95 0.16-0.95 0.16-1.93 0.33l1-4c3.06-0.54 5.89-1 9-1z" fill="#010203"/>
<path transform="translate(1085,393)" d="m0 0c0.99 0.33 1.98 0.66 3 1 0.12 5.75 0.12 5.75-1 8-0.99-0.33-1.98-0.66-3-1-0.04-2.33-0.04-4.67 0-7l1-1z" fill="#00A5A4"/>
<path transform="translate(1029,472)" d="m0 0h1v7h-1v-7z" fill="#040307"/>
<path transform="translate(101,356)" d="m0 0 2 3h-3l1-3z" fill="#1489D9"/>
<path transform="translate(1113,618)" d="m0 0h2l-1 3-1-3z" fill="#010304"/>
<path transform="translate(1110,606)" d="m0 0h2l-1 3-1-3z" fill="#000001"/>
<path transform="translate(1107,585)" d="m0 0h2l-1 3-1-3z" fill="#000002"/>
<path transform="translate(1108,392)" d="m0 0 1 3h-2l1-3z" fill="#47BBC2"/>
<path transform="translate(410,398)" d="m0 0h2v2h-2v-2z" fill="#020405"/>
<path transform="translate(1580,338)" d="m0 0h2l-1 3-1-3z" fill="#000101"/>
<path transform="translate(818,485)" d="m0 0c3 1 3 1 3 1z" fill="#59B9C8"/>
<path transform="translate(731,432)" d="m0 0h2l-1 2-1-2z" fill="#000002"/>
<path transform="translate(407,380)" d="m0 0h2l-1 2-1-2z" fill="#000102"/>
<path transform="translate(1180,374)" d="m0 0h2l-1 2-1-2z" fill="#000102"/>
<path transform="translate(1310,368)" d="m0 0h2l-1 2-1-2z" fill="#000002"/>
<path transform="translate(401,368)" d="m0 0h2l-1 2-1-2z" fill="#000002"/>
<path transform="translate(395,362)" d="m0 0h2l-1 2-1-2z" fill="#000102"/>
<path transform="translate(1589,350)" d="m0 0h2l-1 2-1-2z" fill="#000102"/>
<path transform="translate(486,350)" d="m0 0h2l-1 2-1-2z" fill="#000102"/>
<path transform="translate(1582,341)" d="m0 0h2l-1 2-1-2z" fill="#000102"/>
<path transform="translate(1577,335)" d="m0 0h2l-1 2-1-2z" fill="#000101"/>
<path transform="translate(1085,327)" d="m0 0c0.99 0.5 0.99 0.5 2 1-0.99 0.5-0.99 0.5-2 1v-2z" fill="#1E6BCE"/>
<path transform="translate(1564,323)" d="m0 0h2l-1 2-1-2z" fill="#000102"/>
<path transform="translate(813,316)" d="m0 0h2l-1 2-1-2z" fill="#000002"/>
<path transform="translate(177,316)" d="m0 0h2l-1 2-1-2z" fill="#000102"/>
<path transform="translate(1097,484)" d="m0 0 2 1z" fill="#2CBEBA"/>
<path transform="translate(870,484)" d="m0 0 2 1z" fill="#59B9C8"/>
<path transform="translate(890,433)" d="m0 0 2 1z" fill="#59B9C8"/>
<path transform="translate(309,388)" d="m0 0 2 1z" fill="#59B9C8"/>
<path transform="translate(1316,383)" d="m0 0 2 1z" fill="#000002"/>
<path transform="translate(1174,365)" d="m0 0 2 1z" fill="#000002"/>
<path transform="translate(1322,181)" d="m0 0 2 1z" fill="#000101"/>
</svg>
